<?xml version="1.0" encoding="utf-8"?>
<!-- Generator: Adobe Illustrator 27.9.0, SVG Export Plug-In . SVG Version: 6.00 Build 0)  -->
<svg version="1.1" id="Layer_1" xmlns="http://www.w3.org/2000/svg" xmlns:xlink="http://www.w3.org/1999/xlink" x="0px" y="0px"
	 viewBox="0 0 110 110" style="enable-background:new 0 0 110 110;" xml:space="preserve">
<path d="M74.09,14.62c-0.91,0.09-1.68,0.94-1.68,1.85v17.56H54.86c-0.97,0-1.85,0.88-1.85,1.85v17.56H35.45
	c-0.97,0-1.85,0.88-1.85,1.85v17.56H16.04c-0.97,0-1.85,0.88-1.85,1.85v19.41c0,0.97,0.88,1.85,1.85,1.85h77.64
	c0.97,0,1.85-0.88,1.85-1.85V16.47c0-0.97-0.88-1.85-1.85-1.85L74.09,14.62L74.09,14.62z M76.12,18.32h15.71v73.94H17.89V76.55
	h17.56c0.97,0,1.85-0.88,1.85-1.85V57.13h17.56c0.97,0,1.85-0.88,1.85-1.85V37.72h17.56c0.97,0,1.85-0.88,1.85-1.85L76.12,18.32z"/>
</svg>
