<?xml version="1.0" encoding="UTF-8"?>
<svg id="Layer_1" data-name="Layer 1" xmlns="http://www.w3.org/2000/svg" viewBox="0 0 600 150">
  <defs>
    <style>
      .cls-1 {
        fill: #fff;
      }

      .cls-2 {
        fill: #c12126;
      }
    </style>
  </defs>
  <g>
    <path class="cls-1" d="M88.4,71.53c0-.11-.07-.15-.18-.14-.37.14-.65.34-.89.67-.3.41-.4.87-.35,1.38.09.52.32.94.72,1.24.31.21.63.33,1.01.38.03-.02.05-.04.05-.04.05-.04.07-.13.05-.31-.04-.05-.07-.15-.1-.24l-.03-.1c-.43-.94-.52-1.89-.28-2.8l-.02-.03Z"/>
    <path class="cls-1" d="M81.82,87.3c-.34.4-.44.86-.34,1.45.06.42.25.8.55,1.17.1.08.21.08.29.03t0-.04c.21-.97.77-1.72,1.68-2.24l.1-.07c.1-.03.17-.08.23-.12.11-.12.13-.25.12-.32t-.04-.05c-.39-.23-.8-.36-1.24-.37-.56-.03-1.03.19-1.38.59Z"/>
    <path class="cls-1" d="M76.7,92.88c.05-.04.13-.09.19-.17l.1-.07c.8-.68,1.69-.97,2.67-.84,0,0,.03-.02.07-.01.05-.04.09-.14.05-.27-.25-.41-.54-.71-.92-.91-.52-.29-1.01-.33-1.5-.14-.46.17-.82.54-.98,1.09-.14.41-.14.84-.06,1.29t.04.05c.06.03.17.07.34,0Z"/>
    <path class="cls-1" d="M81.2,94.33s.02.03.04,0c.06.03.16,0,.29-.09.05-.04.11-.12.17-.2l.08-.1c.64-.8,1.45-1.3,2.37-1.49t.05-.04c.05-.04.07-.13,0-.23-.25-.25-.57-.42-.97-.48-.49-.08-.96.02-1.4.33-.41.29-.69.73-.78,1.21-.07.4-.03.72.14,1.07Z"/>
    <path class="cls-1" d="M72.53,90.85c-.55,0-.99.2-1.38.63-.26.34-.46.72-.54,1.16,0,0,0,.04.02.03.03.1.14.14.3.14.07-.01.14-.02.26-.07l.1-.03c1.01-.33,1.95-.22,2.8.27h.04c.11,0,.15-.06.18-.24-.06-.42-.22-.86-.48-1.18-.35-.49-.79-.73-1.29-.72Z"/>
    <path class="cls-1" d="M75.12,94.55c-.52.09-.92.34-1.22.75-.24.32-.36.65-.36,1.03,0,.11.08.17.17.19t.05-.04c.8-.53,1.72-.71,2.74-.58h.11c.09.01.18.03.27.04.17-.04.24-.1.28-.16v-.04c-.12-.34-.32-.63-.63-.84-.42-.32-.9-.45-1.42-.36Z"/>
    <path class="cls-1" d="M89.46,79.39c.01-.09-.07-.15-.18-.14-.35.05-.67.2-.95.48-.36.37-.55.82-.57,1.34,0,.5.18.96.55,1.32.25.29.56.46.91.52h.04c.08-.05.09-.14.12-.31-.04-.05-.07-.15-.07-.26l-.03-.1c-.27-.98-.2-1.93.16-2.8.03-.02,0-.04,0-.04Z"/>
    <path class="cls-1" d="M83.94,82.76c-.17.47-.1.96.25,1.46.21.36.55.66.95.85.15.05.25.02.26-.07t0-.04c-.18-.96.05-1.91.7-2.75l.06-.08c.06-.08.09-.14.15-.23.05-.15.05-.27-.04-.33,0,0-.02-.03-.04,0-.44-.08-.86-.01-1.27.13-.51.21-.87.58-1.03,1.08Z"/>
    <path class="cls-1" d="M87.64,85.62c-.5.12-.85.45-1.11.91-.22.46-.29.91-.15,1.43.1.36.3.64.6.9h.04c.07,0,.15-.06.22-.23.03-.06.05-.15.06-.24l.04-.11c.22-1.01.7-1.82,1.44-2.42t.05-.04c.03-.06,0-.16-.09-.24-.35-.06-.72-.08-1.1.04Z"/>
    <path class="cls-1" d="M86.6,65.48c-.26-.36-.5-.66-.77-.86-.29-.19-.48-.24-.63-.18-.16.11-.19.33-.13.64.05.35.2.72.45,1.08.23.38.48.67.74.88.26.2.48.24.63.18.16-.11.19-.33.11-.66-.04-.33-.18-.69-.41-1.07Z"/>
    <path class="cls-1" d="M55.2,87.72c.26.36.56.62.87.79.27.16.49.2.63.06.13-.09.17-.31.06-.63-.11-.31-.3-.64-.56-1.01-.31-.33-.58-.6-.87-.79-.3-.14-.52-.18-.65-.09-.14.14-.15.34-.07.67.11.31.3.64.58.99Z"/>
    <path class="cls-1" d="M60.11,91.56c.95.07,1.79.44,2.56,1.14l.07.1c.08.06.12.11.2.17.13.07.26.09.31.05,0,0,.03-.02.03-.06.08-.33.09-.69,0-1.05-.19-.49-.49-.86-.93-1.09-.48-.24-.95-.3-1.44-.11-.36.1-.66.27-.89.55-.05.15-.04.22.04.28t.04,0Z"/>
    <path class="cls-1" d="M69.35,94.04c-.49-.2-.98-.12-1.43.08-.35.17-.6.42-.79.75-.04.11-.03.18.08.22h.04c.92-.06,1.84.18,2.69.78l.11.04c.08.06.16.12.22.15.15.05.24.06.32,0,0,0,.03-.02,0-.04.06-.35-.01-.73-.16-1.05-.24-.45-.6-.78-1.09-.94Z"/>
    <path class="cls-1" d="M73.7,21.79c-3.54,0-7.01.31-10.39.91v39.2c3.1-1.66,6.63-2.61,10.39-2.61,5.38,0,10.31,1.94,14.14,5.16.3.48.52.96.65,1.45.03.1.09.29.16.55,0,.43,0,.98.01,1.67-.01.86.15,1.53.48,2,.18.26.46.53.84.8.38.32.66.55.81.75.43.67.46,1.58.07,2.79-.08.21-.22.51-.36.8-.52.91-.65,1.67-.42,2.32.21.63.53,1.18.86,1.65.19.21.38.47.6.74.2.28.36.68.42,1.14.08.49-.16,1.04-.72,1.68-.52.64-.88,1.17-1.05,1.64-.18.52-.18,1.18.03,2.12.21.9.09,1.61-.33,2.06-.44.43-1.35.96-2.81,1.53-.98.7-1.59,1.6-1.91,2.68-.17.59-.32,1.08-.49,1.56-.08.21-.21.42-.47.6l-.03.02c-.18.13-.31.22-.34.24-.18.13-.44.2-.75.26-.48-.01-1-.03-1.61-.07-1.13-.06-2.18.22-3.14.9-1.05,1.21-1.85,1.9-2.4,2.17-.57.25-1.27.13-2.06-.37-.83-.5-1.45-.73-1.97-.75-.5,0-1.15.19-1.93.47-.78.32-1.38.36-1.82.12-.42-.21-.74-.49-.94-.78-.18-.3-.36-.56-.5-.81-.33-.47-.73-.92-1.23-1.35-.52-.41-1.32-.54-2.42-.39-.31.06-.61.08-.84.09-1.27-.03-2.13-.36-2.59-1.01-.17-.19-.3-.53-.47-.99-.13-.45-.3-.8-.48-1.06-.33-.47-.91-.84-1.73-1.11-1.2-.43-2-.73-2.28-.91-.13-.07-.44-.35-.96-.92-.29-.42-.57-.92-.83-1.44-.17-.35-.31-.6-.37-.75-.15-.32-.28-.65-.4-.99,0,0,0,0,0,0-.05-.13-.09-.26-.14-.4-.22-1.25-.35-2.54-.35-3.86,0-1.49.15-2.95.43-4.36v-23.82c-8.45,6.49-13.9,16.69-13.9,28.17,0,19.61,15.89,35.5,35.5,35.5.4,0,.81-.02,1.21-.03v9.61c-.4.01-.8.02-1.21.02-24.87,0-45.1-20.23-45.1-45.1,0-17.04,9.51-31.89,23.5-39.56v-15.92c-22.18,8.67-37.93,30.26-37.93,55.47,0,32.82,26.7,59.53,59.53,59.53,4.47,0,8.83-.5,13.02-1.44v-25.06c13.16-5.19,22.48-18.02,22.48-33.03,0-19.18-15.21-34.8-34.23-35.47v-9.6c24.28.68,43.83,20.62,43.83,45.06,0,11.21-4.11,21.48-10.91,29.38-2.87,3.34-6.23,6.24-9.95,8.62v16.36c3.51-1.57,6.84-3.46,9.95-5.65,15.32-10.78,25.34-28.59,25.34-48.71,0-32.82-26.71-59.53-59.53-59.53ZM58.13,93.94c-.14.14-.38.12-.69.02-.3-.14-.6-.35-.91-.68-.26-.32-.49-.63-.59-.94-.13-.3-.11-.54.07-.67.14-.14.37-.14.66,0,.3.1.6.35.89.65.31.33.49.63.59.94.11.31.11.54-.02.68ZM61.07,98.36c-.09.1-.26.07-.58-.05-.34-.15-.67-.34-1.03-.63-.41-.3-.7-.55-.91-.79-.23-.27-.29-.46-.23-.54.07-.13.24-.09.58.05.29.14.65.32,1.04.59.36.29.68.57.91.84.21.24.27.43.23.54ZM65.01,98.64c-.39,0-.77-.15-1.21-.39-.39-.23-.74-.49-.96-.8-.23-.27-.27-.55-.17-.74.1-.19.36-.26.72-.24.38.04.77.15,1.18.41.42.21.74.49.96.8.22.31.27.55.17.74-.1.19-.34.28-.7.22ZM68.39,102.08c-.34-.03-.73-.1-1.19-.25-.43-.16-.81-.32-1.1-.51-.29-.19-.42-.32-.38-.43.04-.11.21-.15.57-.13.34.03.73.1,1.19.25.45.19.81.32,1.1.51.29.19.4.34.38.43-.04.11-.23.17-.57.13ZM73.03,100.5c-.36.1-.77.12-1.24.06-.49-.04-.89-.15-1.19-.36-.31-.17-.46-.37-.42-.6.01-.2.2-.38.54-.5.36-.1.78-.16,1.27-.08.49.04.89.15,1.19.36.31.17.46.37.45.58-.04.22-.23.39-.59.54ZM77.86,101.99c-.32.15-.72.24-1.19.3-.47.06-.88.08-1.21,0-.36-.02-.53-.09-.53-.21,0-.11.15-.22.47-.38.31-.11.69-.18,1.18-.25.47-.06.85-.06,1.19-.03.34.03.51.11.55.23,0,.11-.15.23-.47.33ZM81.53,98.1c-.25.25-.63.49-1.07.64-.44.2-.85.29-1.23.25-.39,0-.59-.12-.7-.32-.06-.19.03-.45.28-.7.27-.27.63-.49,1.07-.68.44-.15.84-.25,1.25-.22.34.03.57.14.67.34.08.22-.02.41-.28.7ZM89.19,91.93c-.09.37-.31.72-.64,1.08-.32.38-.63.64-.96.79-.37.14-.58.18-.76.03-.15-.16-.21-.4-.07-.76.09-.37.31-.72.59-1.08.33-.35.65-.62,1-.79.32-.15.6-.15.76-.03.15.16.18.42.08.76ZM91.58,86.34c-.1-.36-.07-.76.05-1.24.08-.49.26-.85.5-1.17.23-.28.46-.4.65-.35.22.04.37.25.42.6.07.38.05.78-.05,1.24-.13.48-.28.86-.5,1.17-.26.3-.46.4-.68.36-.2-.06-.34-.26-.4-.61ZM93.74,89.44c-.06.35-.19.72-.4,1.14-.21.42-.43.77-.68,1.02-.2.26-.36.37-.47.33-.13-.07-.14-.25-.06-.58.08-.33.24-.71.44-1.13.19-.45.41-.8.63-1.03.23-.28.39-.39.51-.32.1.09.11.27.02.57ZM95.35,80.28c.08-.33.15-.5.29-.48.01,0,.03.02.04.02.03.49.06.99.06,1.49,0,.63-.03,1.24-.08,1.86-.02,0-.04.02-.07.01-.11,0-.22-.15-.28-.5-.08-.33-.13-.73-.11-1.2.01-.48.05-.86.16-1.2ZM94.65,74.51c-.09-.06-.19-.17-.29-.35-.2-.29-.36-.68-.49-1.13-.14-.4-.19-.75-.22-1.06.39.82.72,1.67,1.01,2.55ZM92.06,76.14c.1-.35.26-.57.47-.6.21-.03.44.12.64.4.22.31.36.72.44,1.17.08.49.07.92-.03,1.27-.09.37-.23.55-.44.59-.24.05-.44-.08-.64-.41-.22-.31-.38-.7-.44-1.17-.1-.47-.08-.88,0-1.25ZM89.96,67.58c.16-.11.4-.05.63.18.29.19.51.5.72.85.18.42.3.76.34,1.08-.03.34-.07.56-.25.64-.17.08-.41.02-.68-.18-.26-.2-.46-.49-.67-.89-.21-.36-.33-.74-.32-1.06-.04-.33.05-.54.22-.62Z"/>
  </g>
  <path class="cls-2" d="M20.43,19.09c1.73,1.23,4.01,1.23,6.16.75,3.26-.72,6.18-2.51,8.36-5.04,9.78-11.36,17.22-8.57,17.22-8.57v26.75s-6.91-6.17-18.02-3.9c-10.07,2.06-13.36-7.99-13.88-9.89-.03-.1.09-.17.17-.11Z"/>
  <path class="cls-1" d="M117.64,30.42c-.68,0-1.31-.12-1.88-.35s-1.05-.56-1.45-.97c-.4-.41-.71-.89-.93-1.45-.22-.56-.33-1.17-.33-1.83s.11-1.26.33-1.83c.22-.57.53-1.05.93-1.46.4-.41.88-.73,1.45-.97.57-.24,1.19-.35,1.88-.35s1.31.12,1.88.35,1.05.55,1.45.97c.4.41.71.9.93,1.46s.33,1.17.33,1.83-.11,1.27-.33,1.83c-.22.56-.53,1.05-.93,1.45-.4.41-.88.73-1.45.97s-1.19.35-1.88.35ZM117.64,29.62c.58,0,1.09-.1,1.55-.3s.84-.47,1.16-.8.56-.74.73-1.2c.17-.46.25-.96.25-1.5s-.09-1.02-.25-1.49c-.17-.46-.41-.86-.73-1.2s-.7-.61-1.16-.8c-.45-.2-.97-.3-1.55-.3s-1.08.1-1.54.3c-.46.2-.84.47-1.16.8-.31.34-.55.74-.72,1.2s-.25.96-.25,1.49.08,1.04.25,1.5.41.86.72,1.2c.31.34.7.61,1.16.8.46.2.97.3,1.54.3ZM116.12,23.35c.21-.02.42-.05.63-.06.2-.02.42-.02.66-.02.3,0,.57.03.82.09.25.06.46.14.64.26s.32.27.42.46c.1.19.16.41.16.67,0,.37-.09.67-.27.9-.18.23-.38.39-.59.5l1.3,1.97c-.12.02-.22.03-.32.03-.09,0-.19,0-.28,0-.17,0-.33-.01-.48-.04l-1.41-2.2.25-.11c.2-.09.39-.21.56-.37.18-.15.27-.35.27-.59s-.09-.42-.26-.56c-.17-.13-.4-.2-.68-.2-.07,0-.14,0-.21,0-.07,0-.16.01-.25.03v4c-.12.02-.28.04-.46.04s-.33-.01-.48-.04v-4.77Z"/>
  <g>
    <path class="cls-1" d="M164.5,62.16h-12.48c-.28-1.39-.42-2.86-.42-4.39,0-1.44.14-2.86.42-4.25h35.2c.28,1.39.42,2.81.42,4.25,0,1.53-.14,3-.42,4.39h-12.48v41.48c-.84.09-1.67.18-2.51.28-.84.09-1.65.14-2.44.14-1.63,0-3.39-.14-5.3-.42v-41.48Z"/>
    <path class="cls-1" d="M199.5,53.51c1.77-.28,3.46-.42,5.09-.42,1.72,0,3.44.14,5.16.42v19.66h16.8v-19.66c1.77-.28,3.46-.42,5.09-.42,1.72,0,3.44.14,5.16.42v50.12c-1.72.28-3.42.42-5.09.42s-3.39-.14-5.16-.42v-21.68h-16.8v21.68c-1.72.28-3.42.42-5.09.42s-3.39-.14-5.16-.42v-50.12Z"/>
    <path class="cls-1" d="M251.78,53.51h28.44c.28,1.39.42,2.81.42,4.25,0,1.53-.14,3-.42,4.39h-18.26v10.87h14.5c.28,1.44.42,2.88.42,4.32s-.14,2.9-.42,4.39h-14.5v13.25h18.75c.28,1.39.42,2.81.42,4.25,0,1.53-.14,3-.42,4.39h-28.93v-50.12Z"/>
    <path class="cls-1" d="M341.6,77.7c1.28.51,2.49,1.27,3.62,2.26,1.14,1,2.08,2.29,2.82,3.87.74,1.58,1.12,3.49,1.12,5.72,0,3.02-.56,5.5-1.67,7.42-1.12,1.93-2.66,3.44-4.64,4.53-1.98,1.09-4.22,1.86-6.73,2.3-2.51.44-5.16.66-7.95.66-2.14,0-4.25-.06-6.34-.17-2.09-.12-4.46-.34-7.11-.66v-50.19c1.49-.23,3.21-.42,5.16-.56,1.95-.14,4.39-.21,7.32-.21,3.44,0,6.58.38,9.41,1.15s5.09,2.1,6.76,4.01,2.51,4.53,2.51,7.88c0,2-.38,3.79-1.15,5.37-.77,1.58-1.74,2.87-2.93,3.87-1.19,1-2.43,1.59-3.73,1.78,1.07.14,2.24.46,3.52.98ZM336.13,66.76c0-1.81-.41-3.19-1.22-4.15-.81-.95-1.84-1.59-3.07-1.92-1.23-.33-2.48-.49-3.73-.49s-2.35.07-3.28.21v13.38h3.07c2.32,0,4.28-.48,5.86-1.43,1.58-.95,2.37-2.82,2.37-5.61ZM327.1,96.18c.86.05,1.64.07,2.34.07,1.3,0,2.66-.19,4.08-.56,1.42-.37,2.64-1.08,3.66-2.13s1.53-2.59,1.53-4.64c0-2.88-.9-4.85-2.68-5.89-1.79-1.05-4.12-1.57-7.01-1.57h-4.18v14.5c.65.09,1.41.16,2.26.21Z"/>
    <path class="cls-1" d="M399.35,81.68c0,4.56-.53,8.54-1.6,11.96-1.07,3.42-2.96,6.08-5.68,7.98-2.72,1.91-6.56,2.86-11.54,2.86s-8.76-.95-11.5-2.86c-2.74-1.91-4.65-4.57-5.72-7.98s-1.6-7.4-1.6-11.96v-28.16c1.77-.28,3.49-.42,5.16-.42s3.3.14,5.02.42v26c0,3.76.21,6.83.63,9.2s1.25,4.12,2.51,5.26c1.25,1.14,3.09,1.71,5.51,1.71s4.24-.57,5.47-1.71c1.23-1.14,2.06-2.89,2.48-5.26s.63-5.44.63-9.2v-26c1.9-.28,3.6-.42,5.09-.42,1.72,0,3.44.14,5.16.42v28.16Z"/>
    <path class="cls-1" d="M413.99,53.51c1.49-.28,2.86-.42,4.11-.42,1.44,0,2.88.14,4.32.42l19.38,31.93v-31.93c1.67-.28,3.28-.42,4.81-.42s2.88.14,4.18.42v50.12c-1.44.28-2.79.42-4.04.42s-2.72-.14-4.25-.42l-19.52-31.86v31.86c-1.44.28-2.95.42-4.53.42-1.49,0-2.97-.14-4.46-.42v-50.12Z"/>
    <path class="cls-1" d="M468.36,53.16c.84-.05,1.7-.07,2.58-.07.79,0,1.6.02,2.44.07.84.05,1.7.14,2.58.28v50.26c-.88.14-1.74.23-2.58.28-.84.05-1.67.07-2.51.07s-1.67-.02-2.51-.07c-.84-.05-1.7-.14-2.58-.28v-50.26c.88-.14,1.74-.23,2.58-.28ZM502.17,53.51l-13.73,24.19,14.92,25.93c-2.14.28-4.07.42-5.79.42-.74,0-1.57-.02-2.48-.07-.91-.05-1.92-.16-3.03-.35l-14.64-25.23,13.59-24.89c1.07-.18,2.06-.3,2.96-.35.91-.05,1.73-.07,2.48-.07.79,0,1.67.05,2.65.14.98.09,2,.19,3.07.28Z"/>
    <path class="cls-1" d="M514.16,53.51h28.44c.28,1.39.42,2.81.42,4.25,0,1.53-.14,3-.42,4.39h-18.26v10.87h14.5c.28,1.44.42,2.88.42,4.32s-.14,2.9-.42,4.39h-14.5v13.25h18.75c.28,1.39.42,2.81.42,4.25,0,1.53-.14,3-.42,4.39h-28.93v-50.12Z"/>
    <path class="cls-1" d="M556.9,53.51c2.04-.23,3.96-.43,5.75-.59,1.79-.16,3.78-.24,5.96-.24,2.55,0,5.08.23,7.56.7,2.49.47,4.74,1.28,6.76,2.44s3.64,2.77,4.85,4.81c1.21,2.05,1.81,4.62,1.81,7.74,0,2.42-.4,4.5-1.19,6.24-.79,1.74-1.73,3.18-2.82,4.32-1.09,1.14-2.15,2.03-3.17,2.68l-1.19.77,12.2,21.19c-.93.09-1.91.2-2.93.31-1.02.12-2.07.17-3.14.17-.88,0-1.75-.05-2.61-.14-.86-.09-1.73-.21-2.61-.35l-13.11-23.28,1.67-.84c.65-.33,1.43-.74,2.34-1.25s1.8-1.15,2.68-1.92,1.63-1.7,2.23-2.79c.6-1.09.91-2.38.91-3.87,0-2.93-.84-5.08-2.51-6.45-1.67-1.37-3.83-2.06-6.48-2.06-1.02,0-1.95.07-2.79.21v42.31c-.84.09-1.67.18-2.51.28-.84.09-1.65.14-2.44.14-1.58,0-3.32-.14-5.23-.42v-50.12Z"/>
  </g>
</svg>