<?xml version="1.0" encoding="utf-8"?>
<!-- Generator: Adobe Illustrator 27.9.0, SVG Export Plug-In . SVG Version: 6.00 Build 0)  -->
<svg version="1.1" id="Layer_1" xmlns="http://www.w3.org/2000/svg" xmlns:xlink="http://www.w3.org/1999/xlink" x="0px" y="0px"
	 viewBox="0 0 150 110" style="enable-background:new 0 0 150 110;" xml:space="preserve">
<g>
	<path d="M140.29,41.21h-6.57l0.46-0.85c0.75-1.39,1.15-2.99,1.16-4.61c0-0.38-0.09-0.74-0.28-1.05c-0.18-0.3-0.42-0.53-0.71-0.67
		l-0.55-0.27l0.3-0.53c0.8-1.45,1.23-3.11,1.24-4.8c0-0.51-0.18-0.98-0.49-1.34c-0.3-0.34-0.7-0.52-1.12-0.52h-26.28
		c-0.42,0-0.82,0.19-1.12,0.53c-0.32,0.36-0.49,0.83-0.49,1.34c0.01,1.69,0.44,3.35,1.24,4.8l0.3,0.53l-0.55,0.27
		c-0.29,0.14-0.54,0.37-0.71,0.67c-0.18,0.31-0.28,0.68-0.28,1.05c0.01,1.63,0.41,3.22,1.16,4.61l0.46,0.85h-6.57l0.46-0.85
		c0.75-1.39,1.15-2.99,1.16-4.61c0-0.38-0.09-0.74-0.28-1.05c-0.18-0.3-0.42-0.53-0.71-0.67l-0.55-0.27l0.3-0.53
		c0.8-1.44,1.23-3.11,1.24-4.8c0-0.37-0.09-0.74-0.28-1.05c-0.18-0.3-0.42-0.54-0.71-0.68l-0.55-0.27l0.3-0.53
		c0.8-1.44,1.23-3.11,1.24-4.8c0-0.37-0.09-0.74-0.28-1.05c-0.18-0.3-0.42-0.54-0.71-0.68l-0.55-0.27l0.3-0.53
		c0.8-1.44,1.23-3.11,1.24-4.8c0-0.5-0.18-0.99-0.49-1.34c-0.3-0.34-0.7-0.53-1.12-0.53H74.58c-0.42,0-0.82,0.19-1.12,0.53
		c-0.32,0.35-0.5,0.84-0.5,1.34c0.01,1.7,0.44,3.36,1.24,4.8l0.3,0.53l-0.55,0.27c-0.29,0.14-0.53,0.37-0.71,0.67
		c-0.18,0.31-0.28,0.68-0.28,1.05c0.01,1.7,0.44,3.36,1.24,4.8l0.3,0.53l-0.55,0.27c-0.29,0.14-0.53,0.37-0.71,0.67
		c-0.18,0.31-0.28,0.68-0.28,1.05c0.01,1.7,0.44,3.36,1.24,4.8l0.3,0.53l-0.55,0.27c-0.29,0.14-0.53,0.37-0.71,0.67
		c-0.18,0.31-0.28,0.68-0.28,1.05c0.01,1.62,0.41,3.22,1.16,4.61l0.46,0.85H58.67v-3.59h2.76c0.42,0,0.82-0.19,1.12-0.52
		c0.31-0.35,0.5-0.84,0.5-1.34v-7.9h4.38v-3.74h-6.69l-0.07-0.49c-0.5-3.28-2.02-6.27-4.3-8.41c-2.26-2.13-5.13-3.31-8.08-3.31
		h-4.96V7.01h-3.23v4.89h-4.96c-2.95,0-5.82,1.18-8.08,3.31c-2.27,2.14-3.8,5.13-4.3,8.41l-0.07,0.49h-6.69v3.74h4.38v7.9
		c0,0.5,0.18,0.99,0.5,1.34c0.3,0.34,0.7,0.53,1.12,0.53h2.76v3.59H8.87c-0.42,0-0.82,0.19-1.12,0.53
		c-0.31,0.35-0.49,0.84-0.49,1.34v9.77c0,0.5,0.18,0.99,0.49,1.34c0.3,0.34,0.7,0.53,1.12,0.53h2.77v46.99
		c0,0.5,0.18,0.99,0.49,1.34c0.3,0.34,0.7,0.52,1.12,0.52h8.76c0.42,0,0.82-0.19,1.12-0.52c0.31-0.35,0.49-0.84,0.49-1.34V54.72
		h12.99L73.8,78.9c0.48,0.31,1.09,0.31,1.56,0l37.18-24.18h12.99v46.99c0,0.5,0.18,0.99,0.5,1.34c0.3,0.34,0.7,0.52,1.12,0.52h8.76
		c0.42,0,0.82-0.19,1.12-0.52c0.31-0.35,0.49-0.84,0.49-1.34V54.72h2.76c0.42,0,0.82-0.19,1.12-0.53c0.31-0.35,0.5-0.84,0.5-1.34
		v-9.77c0-0.5-0.18-0.99-0.5-1.34C141.1,41.4,140.71,41.21,140.29,41.21z M131.88,30.29l-0.44,0.84c-0.88,1.7-2.52,2.75-4.3,2.75
		H114c-1.78,0-3.42-1.06-4.3-2.75l-0.44-0.84H131.88z M131.88,37.62l-0.44,0.84c-0.88,1.7-2.52,2.75-4.3,2.75H114
		c-1.78,0-3.42-1.06-4.3-2.75l-0.44-0.84H131.88z M99.03,15.64l-0.44,0.84c-0.88,1.7-2.53,2.75-4.3,2.75H81.15
		c-1.77,0-3.42-1.06-4.3-2.75l-0.44-0.84H99.03z M98.59,31.13c-0.88,1.7-2.52,2.75-4.3,2.75H81.15c-1.77,0-3.42-1.06-4.3-2.75
		l-0.44-0.84h22.61L98.59,31.13z M99.03,37.62l-0.44,0.84c-0.88,1.7-2.52,2.75-4.3,2.75H81.15c-1.77,0-3.42-1.06-4.3-2.75
		l-0.44-0.84H99.03z M98.59,23.8c-0.88,1.7-2.52,2.75-4.3,2.75H81.15c-1.77,0-3.42-1.06-4.3-2.75l-0.44-0.84h22.61L98.59,23.8z
		 M26.14,23.41c0.51-2.2,1.68-4.18,3.29-5.58c1.63-1.41,3.66-2.19,5.72-2.19H48.3c2.06,0.01,4.1,0.79,5.73,2.19
		c1.61,1.4,2.78,3.38,3.29,5.58l0.16,0.71h-31.5L26.14,23.41z M23.63,33.89v-6.04h36.19v6.04H23.63z M55.44,37.62v3.59h-5.53v-3.59
		H55.44z M46.68,37.62v3.59h-9.91v-3.59H46.68z M33.54,37.62v3.59h-5.53v-3.59H33.54z M20.4,99.84h-5.53V54.72h5.53V99.84z
		 M10.49,50.99v-6.04h11.11l9.28,6.04H10.49z M74.58,75.13l-0.31-0.21L28.18,44.95h92.8L74.58,75.13z M134.29,99.84h-5.53V54.72
		h5.53V99.84z M138.67,50.99h-20.39l9.29-6.04h11.11V50.99z"/>
</g>
</svg>
