<?xml version="1.0" encoding="utf-8"?>
<!-- Generator: Adobe Illustrator 27.9.0, SVG Export Plug-In . SVG Version: 6.00 Build 0)  -->
<svg version="1.1" id="Layer_1" xmlns="http://www.w3.org/2000/svg" xmlns:xlink="http://www.w3.org/1999/xlink" x="0px" y="0px"
	 viewBox="0 0 110 110" style="enable-background:new 0 0 110 110;" xml:space="preserve">
<path d="M105.61,19.24c-0.27-0.76-0.94-1.3-1.74-1.39l-8.99-1c0.7-0.82,0.67-2.06-0.11-2.84c-0.78-0.78-2.02-0.81-2.84-0.11l-1-9
	c-0.09-0.8-0.63-1.48-1.39-1.74c-0.76-0.27-1.6-0.07-2.17,0.49L73.79,17.25c-1.46-0.82-2.97-1.56-4.52-2.22
	c-5.67-2.4-11.7-3.62-17.91-3.62c-6.21,0-12.23,1.22-17.91,3.62c-5.48,2.32-10.4,5.63-14.62,9.86s-7.54,9.14-9.86,14.62
	c-2.4,5.67-3.62,11.7-3.62,17.91c0,6.21,1.22,12.24,3.62,17.91c2.32,5.48,5.63,10.4,9.86,14.62c4.22,4.22,9.15,7.54,14.62,9.86
	c5.67,2.4,11.7,3.61,17.91,3.61c6.21,0,12.24-1.22,17.91-3.61c5.48-2.32,10.4-5.64,14.62-9.86c4.23-4.22,7.54-9.14,9.86-14.62
	c2.4-5.67,3.61-11.7,3.61-17.91c0-6.21-1.22-12.23-3.61-17.91c-0.66-1.55-1.4-3.06-2.21-4.52l13.58-13.58
	C105.69,20.84,105.88,20,105.61,19.24L105.61,19.24z M87.26,9.7l0.77,6.92c-2.03,0.84-5.51,3.18-12.44,9.17l0.49-4.91L87.26,9.7z
	 M63.13,53.07c0.5,1.36,0.78,2.82,0.78,4.35c0,6.92-5.63,12.55-12.55,12.55c-6.92,0-12.55-5.63-12.55-12.55
	c0-6.92,5.63-12.55,12.55-12.55c1.53,0,2.99,0.28,4.35,0.78v4.46l-5.83,5.83c-0.82,0.82-0.82,2.14,0,2.96
	c0.41,0.41,0.94,0.61,1.48,0.61c0.53,0,1.07-0.21,1.48-0.61l5.83-5.83L63.13,53.07z M57.93,42.04c-2.02-0.86-4.24-1.34-6.56-1.34
	c-9.22,0-16.73,7.5-16.73,16.73c0,9.23,7.5,16.73,16.73,16.73s16.73-7.51,16.73-16.73c0-2.33-0.48-4.55-1.34-6.56
	c1.64-1.7,4.43-4.62,7.56-8c2.68,4.21,4.24,9.21,4.24,14.56c0,14.99-12.2,27.19-27.18,27.19c-14.99,0-27.18-12.2-27.18-27.19
	c0-14.99,12.2-27.18,27.18-27.18c5.35,0,10.35,1.56,14.56,4.24C62.55,37.61,59.63,40.4,57.93,42.04L57.93,42.04z M75.21,35.68
	c-5.31,5.88-10.61,11.39-12.38,13.21h-2.94v-2.94c1.82-1.76,7.32-7.05,13.2-12.37c6.54-5.91,10.6-9.17,13.09-10.98
	C84.38,25.1,81.11,29.15,75.21,35.68L75.21,35.68z M80.94,87c-7.9,7.9-18.4,12.25-29.57,12.25c-11.17,0-21.67-4.35-29.57-12.25
	c-7.9-7.9-12.25-18.4-12.25-29.58c0-11.17,4.35-21.67,12.25-29.57c7.9-7.9,18.4-12.25,29.57-12.25c7.3,0,14.32,1.86,20.5,5.35
	l-0.88,8.91c-0.1,0.09-0.2,0.18-0.3,0.27c-0.53,0.48-1.05,0.95-1.58,1.43c-5.18-3.57-11.32-5.5-17.75-5.5
	c-8.38,0-16.26,3.26-22.18,9.19c-5.92,5.92-9.19,13.8-9.19,22.18c0,8.38,3.26,16.26,9.19,22.18c5.92,5.92,13.8,9.19,22.18,9.19
	s16.25-3.26,22.18-9.19c5.93-5.92,9.19-13.8,9.19-22.18c0-6.43-1.93-12.56-5.5-17.75c0.56-0.62,1.13-1.24,1.69-1.87l8.91-0.88
	c3.49,6.19,5.35,13.2,5.35,20.5C93.18,68.59,88.83,79.1,80.94,87L80.94,87z M87.9,32.71l-4.92,0.49c2.47-2.86,4.47-5.31,5.96-7.31
	c1.34-1.79,2.27-3.2,2.85-4.33c0.09-0.18,0.24-0.46,0.37-0.8l6.91,0.77L87.9,32.71z"/>
</svg>
