<?xml version="1.0" encoding="utf-8"?>
<!-- Generator: Adobe Illustrator 27.9.0, SVG Export Plug-In . SVG Version: 6.00 Build 0)  -->
<svg version="1.1" id="Layer_1" xmlns="http://www.w3.org/2000/svg" xmlns:xlink="http://www.w3.org/1999/xlink" x="0px" y="0px"
	 viewBox="0 0 110 110" style="enable-background:new 0 0 110 110;" xml:space="preserve">
<g>
	<path d="M76.21,23.91h3.18v3.92h-3.18V23.91z"/>
	<path d="M79.21,54.36h3.18v3.92h-3.18V54.36z"/>
	<path d="M41.29,16.51h3.18v3.92h-3.18V16.51z"/>
	<path d="M53.02,10.6l0.05,3.92l-3.18,0.04l-0.05-3.92L53.02,10.6z"/>
	<path d="M86.41,45.53h3.18v3.92h-3.18V45.53z"/>
	<path d="M67.78,79.36h3.18v3.92h-3.18V79.36z"/>
	<path d="M53,73.6L35.18,55.78l-5.95-5.95c-0.37-0.36-0.89-0.53-1.4-0.44c-0.51,0.09-0.95,0.42-1.17,0.89l-2.36,5.02l-3.93,8.33
		l-1.47,3.12l-2.46,5.22l-1.47,3.11l-2.46,5.22l-1.47,3.11L8.6,88.62l-1.47,3.11l-2.82,5.99c-0.28,0.61-0.16,1.33,0.32,1.8
		c0.3,0.3,0.71,0.46,1.12,0.46c0.23,0,0.46-0.05,0.68-0.15l15.76-7.43l6.16-2.9l10.32-4.86l6.16-2.91l9.05-4.26
		c0.29-0.14,0.52-0.36,0.68-0.63c0.1-0.16,0.18-0.34,0.21-0.54c0.09-0.51-0.08-1.03-0.44-1.4L53,73.6z M28.58,53.67l1.89,1.89
		l-2.73-0.12L28.58,53.67z M26.28,58.56l7.53,0.34l5.58,5.58l-15.57-0.7L26.28,58.56z M22.35,66.89l20.37,0.91l5.58,5.58
		l-28.41-1.28L22.35,66.89z M9.07,95.08l1.5-3.19l4.81,0.22L9.07,95.08z M21.54,89.2l-9.5-0.43l2.46-5.22l17.36,0.78L21.54,89.2z
		 M38.02,81.43l-22.06-0.99l2.46-5.22l29.92,1.35L38.02,81.43z"/>
	<path d="M90.1,32.55c-2.84,2.26-5.25,2.06-8.04,1.82c-3.02-0.25-6.45-0.54-10.28,2.5c-3.83,3.04-4.33,6.44-4.77,9.45
		c-0.41,2.77-0.76,5.16-3.6,7.42c-2.84,2.25-5.25,2.05-8.04,1.82c-2.27-0.19-4.77-0.4-7.5,0.8c-0.9,0.4-1.83,0.94-2.78,1.7
		c-0.42,0.33-0.6,0.83-0.57,1.33c0.02,0.32,0.1,0.63,0.31,0.9c0.31,0.4,0.78,0.6,1.25,0.6c0.35,0,0.69-0.11,0.99-0.34
		c0.52-0.41,1.01-0.71,1.51-0.98c2.09-1.11,4.02-1.05,6.14-0.87c0.13,0.01,0.26,0.02,0.39,0.03c3.02,0.25,6.45,0.54,10.28-2.5
		c3.83-3.04,4.33-6.44,4.77-9.45c0.41-2.77,0.76-5.16,3.6-7.42c2.84-2.26,5.25-2.06,8.04-1.82c3.02,0.25,6.45,0.54,10.28-2.5
		c0.69-0.55,0.8-1.55,0.26-2.23C91.79,32.13,90.79,32.01,90.1,32.55L90.1,32.55z"/>
	<path d="M86.23,69.67c-11.79-7.48-25.13-4.9-30.19-3.49c-1.2,0.34-1.95,0.6-2.08,0.66c-0.62,0.23-1.01,0.81-1.03,1.43
		c-0.01,0.2,0.02,0.41,0.1,0.62c0.31,0.82,1.22,1.23,2.04,0.94c0.16-0.06,16.23-5.87,29.46,2.54c0.26,0.17,0.56,0.25,0.85,0.25
		c0.52,0,1.04-0.26,1.34-0.74C87.19,71.12,86.97,70.14,86.23,69.67L86.23,69.67z"/>
	<path d="M33.77,48.69c-0.18,0.86,0.37,1.7,1.23,1.88c0.11,0.02,0.22,0.03,0.33,0.03c0.73,0,1.39-0.51,1.55-1.26
		c0.1-0.47,2.37-11.51-3.67-16.54c-0.67-0.56-1.68-0.47-2.24,0.2c-0.56,0.67-0.47,1.68,0.2,2.24C35.73,39.06,33.79,48.6,33.77,48.69
		L33.77,48.69z"/>
	<path d="M46.01,33.98c1.79,1.36,4.83,1.92,7.56,1.92c0.01,0,0.02,0,0.04,0c0.06,2.23-0.62,4.58-1.99,6.62
		c-1.86,2.78-4.58,4.38-7.47,4.38h-0.02h0c-0.88,0-1.59,0.71-1.59,1.59c0,0.88,0.71,1.59,1.59,1.59h0.02
		c3.96,0,7.65-2.11,10.11-5.79c1.77-2.64,2.63-5.73,2.51-8.68c0.51-0.1,0.97-0.23,1.36-0.38c3.85-1.51,5.05-6.47,4.55-10.44
		c-0.54-4.19-2.81-7.03-5.93-7.41c-0.87-0.09-1.66,0.52-1.77,1.39c-0.1,0.87,0.52,1.66,1.39,1.77c1.92,0.23,2.9,2.65,3.16,4.65
		c0.36,2.84-0.49,6.27-2.55,7.07c-0.21,0.08-0.45,0.15-0.72,0.21c-0.11-0.37-0.24-0.73-0.39-1.08c-1.14-2.74-5.47-5.18-8.42-4.73
		c-1.82,0.27-3.02,1.56-3.21,3.46C44.08,31.63,44.71,33,46.01,33.98L46.01,33.98z M47.39,30.45c0.06-0.57,0.24-0.6,0.51-0.64
		c0.09-0.01,0.19-0.02,0.29-0.02c1.56,0,4.19,1.54,4.73,2.83c0.01,0.03,0.03,0.06,0.04,0.1c-1.94-0.07-3.98-0.47-5.04-1.27
		C47.41,31.06,47.36,30.74,47.39,30.45L47.39,30.45z"/>
	<path d="M99.8,24.96h3.18v3.69H99.8V24.96z"/>
	<path d="M99.8,32.68h3.18v3.69H99.8V32.68z"/>
	<path d="M103.4,29.07h3.69v3.18h-3.69V29.07z"/>
	<path d="M95.68,29.07h3.69v3.18h-3.69V29.07z"/>
	<path d="M22.29,19.95h3.18v3.69h-3.18V19.95z"/>
	<path d="M22.29,27.67h3.18v3.69h-3.18V27.67z"/>
	<path d="M25.89,24.07h3.69v3.18h-3.69V24.07z"/>
	<path d="M18.17,24.07h3.69v3.18h-3.69V24.07z"/>
</g>
</svg>
