<?xml version="1.0" encoding="utf-8"?>
<!-- Generator: Adobe Illustrator 27.9.0, SVG Export Plug-In . SVG Version: 6.00 Build 0)  -->
<svg version="1.1" id="Layer_1" xmlns="http://www.w3.org/2000/svg" xmlns:xlink="http://www.w3.org/1999/xlink" x="0px" y="0px"
	 viewBox="0 0 150 110" style="enable-background:new 0 0 150 110;" xml:space="preserve">
<g>
	<g>
		<path d="M60.69,46.7l-7.34-3.14c-4.31-1.85-7.09-6.07-7.09-10.75v-9.69h1.68c1.86,0,3.37-1.51,3.37-3.37v-6.73
			c0-1.86-1.51-3.37-3.37-3.37h-1.68V6.29c0-1.86-1.51-3.37-3.37-3.37H29.44c-1.86,0-3.37,1.51-3.37,3.37v3.37h-1.68
			c-1.86,0-3.37,1.51-3.37,3.37v6.73c0,1.86,1.51,3.37,3.37,3.37h1.68v9.69c0,4.68-2.78,8.9-7.09,10.75l-7.34,3.14
			C6.1,49.07,2.51,54.5,2.51,60.54c0,0.95,0.09,1.91,0.27,2.84l7.65,39.77c0.46,2.37,2.54,4.1,4.96,4.1h41.55
			c2.42,0,4.5-1.72,4.96-4.1l7.65-39.77c0.18-0.93,0.27-1.89,0.27-2.84C69.82,54.5,66.24,49.07,60.69,46.7L60.69,46.7z M42.93,33.21
			H29.4c0-0.14,0.03-0.27,0.03-0.41v-2.96H42.9v2.96C42.9,32.94,42.92,33.07,42.93,33.21L42.93,33.21z M29.43,6.29H42.9v3.37H29.43
			V6.29z M24.39,13.02h23.56l0,6.73H24.39L24.39,13.02z M42.9,23.11v3.37H29.43v-3.37H42.9z M28.92,36.57h14.48
			c0.91,3.53,3.08,6.61,6.11,8.66c-0.55,1.9-3.13,8.16-13.35,8.16c-10.22,0-12.8-6.26-13.35-8.16
			C25.85,43.18,28.01,40.1,28.92,36.57L28.92,36.57z M66.24,62.75l-7.65,39.77c-0.15,0.79-0.85,1.36-1.65,1.36H15.39
			c-0.81,0-1.5-0.57-1.65-1.36L6.09,62.75c-0.14-0.73-0.21-1.47-0.21-2.21c0-4.68,2.78-8.9,7.09-10.75l6.87-2.94
			c1.16,3.15,4.97,9.92,16.33,9.92c11.36,0,15.17-6.77,16.33-9.92l6.87,2.94c4.31,1.85,7.09,6.07,7.09,10.75
			C66.45,61.28,66.38,62.02,66.24,62.75L66.24,62.75z"/>
		<path d="M58.04,52.88l-1.32,3.09c1.83,0.78,3.01,2.58,3.01,4.56c0,0.31-0.03,0.63-0.09,0.94l-1.62,8.43l3.3,0.63l1.62-8.44
			c0.1-0.52,0.15-1.05,0.15-1.57C63.09,57.2,61.11,54.2,58.04,52.88L58.04,52.88z"/>
		<path d="M36.17,50.03c2.78,0,5.05-2.26,5.05-5.05c0-2.78-2.26-5.05-5.05-5.05c-2.78,0-5.05,2.26-5.05,5.05
			C31.12,47.77,33.38,50.03,36.17,50.03z M36.17,43.3c0.93,0,1.68,0.75,1.68,1.68s-0.76,1.68-1.68,1.68c-0.93,0-1.68-0.75-1.68-1.68
			S35.24,43.3,36.17,43.3z"/>
		<path d="M49.63,63.5H22.71c-2.78,0-5.05,2.26-5.05,5.05v20.19c0,2.78,2.26,5.05,5.05,5.05h26.92c2.78,0,5.05-2.26,5.05-5.05V68.54
			C54.68,65.76,52.41,63.5,49.63,63.5z M51.31,88.74c0,0.93-0.76,1.68-1.68,1.68H22.71c-0.93,0-1.68-0.75-1.68-1.68V68.54
			c0-0.93,0.76-1.68,1.68-1.68h26.92c0.93,0,1.68,0.75,1.68,1.68V88.74z"/>
	</g>
	<g>
		<path d="M101.59,56.18c4.99-0.72,8.85-5.01,8.85-10.2c0-5.69-4.63-10.32-10.32-10.32c-5.12,0-9.36,3.75-10.17,8.63l-14.11,0
			c-0.93,0-1.68,0.75-1.68,1.68c0,18.49,1.52,35.65,12.14,37.27v21.05h-5.33c-0.93,0-1.68,0.75-1.68,1.68
			c0,0.93,0.75,1.68,1.68,1.68H95c0.93,0,1.68-0.75,1.68-1.68c0-0.93-0.75-1.68-1.68-1.68h-5.34V83.25
			C98.29,81.94,100.91,70.38,101.59,56.18L101.59,56.18z M98.34,52.67c-2.43-0.65-4.32-2.56-4.93-5h5.03
			C98.42,49.42,98.38,51.07,98.34,52.67L98.34,52.67z M100.12,39.03c3.83,0,6.95,3.12,6.95,6.95c0,3.28-2.29,6.02-5.35,6.75
			c0.06-2.21,0.09-4.47,0.09-6.75c0-0.93-0.75-1.68-1.68-1.68l-6.72,0C94.16,41.28,96.87,39.03,100.12,39.03L100.12,39.03z
			 M77.53,47.66h12.42c0.7,4.26,4.02,7.65,8.25,8.45c-0.84,16.63-4.03,23.91-10.22,23.91C83.21,80.02,77.74,76.29,77.53,47.66
			L77.53,47.66z"/>
	</g>
	<g>
		<path d="M146.19,58.58c0.39-0.51,0.45-1.2,0.17-1.77c-0.28-0.57-0.87-0.94-1.51-0.94h-4.57c-0.25-1.03-0.75-1.96-1.41-2.75
			l5.86-5.86c0.66-0.66,0.66-1.72,0-2.38c-0.66-0.66-1.72-0.66-2.38,0l-6.27,6.27c-0.73-0.27-1.52-0.44-2.35-0.44
			c-3.17,0-5.83,2.21-6.55,5.17l-19.11,0c-0.64,0-1.23,0.36-1.51,0.94c-0.29,0.57-0.22,1.26,0.17,1.77l18.04,23.69v22.03h-5.34
			c-0.93,0-1.68,0.75-1.68,1.68c0,0.93,0.76,1.68,1.68,1.68h14.04c0.93,0,1.68-0.75,1.68-1.68c0-0.93-0.76-1.68-1.68-1.68h-5.33
			V82.27L146.19,58.58z M127.24,59.24c0.79,2.86,3.39,4.99,6.49,4.99c3.11,0,5.71-2.12,6.49-4.99h1.23l-14.99,19.68l-14.99-19.68
			L127.24,59.24z"/>
	</g>
</g>
</svg>
