<?xml version="1.0" encoding="utf-8"?>
<!-- Generator: Adobe Illustrator 27.9.0, SVG Export Plug-In . SVG Version: 6.00 Build 0)  -->
<svg version="1.1" id="Layer_1" xmlns="http://www.w3.org/2000/svg" xmlns:xlink="http://www.w3.org/1999/xlink" x="0px" y="0px"
	 viewBox="0 0 110 110" style="enable-background:new 0 0 110 110;" xml:space="preserve">
<path d="M100.49,33.63c-0.64-0.22-15.1-5.14-27.53-3.52c-0.18-4.67-0.73-9.31-1.65-13.89c-0.09-0.41-0.33-0.78-0.68-1.01
	c-0.35-0.24-0.78-0.33-1.19-0.26c-0.78,0.13-15.45,2.68-26.34,9.78h0c-1.85-1.43-4.14-2.17-6.47-2.1c-2.34,0.07-4.57,0.96-6.33,2.5
	c-3.54-5.99-10.22-7.22-14.08-4.94c-2.17,1.28-3.72,3.39-4.3,5.84c-0.58,2.45-0.14,5.03,1.21,7.15c-1.89,1.09-3.4,2.72-4.36,4.68
	c-0.95,1.96-1.3,4.16-1,6.32c0.19,1.07,0.55,2.11,1.08,3.06c-0.92,0.96-1.36,2.28-1.18,3.6c0.67,5.03,0.81,13.04,5.63,21.35
	c6.37,10.97,12.96,13.84,16.88,16.57v0c0.42,0.28,0.87,0.52,1.35,0.69v2.95c0,0.87,0.35,1.7,0.96,2.32
	c0.61,0.61,1.45,0.96,2.32,0.96h37.71c0.87,0,1.7-0.35,2.32-0.96c0.61-0.61,0.96-1.45,0.96-2.32v-2.95
	c0.48-0.18,0.93-0.41,1.35-0.69c3.87-2.69,10.5-5.44,16.88-16.57c4.77-8.31,4.96-16.26,5.63-21.34v0c0.13-0.9-0.03-1.81-0.45-2.61
	c-0.42-0.8-1.08-1.45-1.89-1.86c1.65-3.47,3.06-7.06,4.2-10.73c0.12-0.4,0.08-0.84-0.12-1.21
	C101.22,34.05,100.88,33.76,100.49,33.63L100.49,33.63z M68.41,18.49c0.8,4.41,2.64,17.14-0.16,27.5l-16.78,0l3.32-4.9
	c3.48,0.92,7.19,0.36,10.24-1.54c0.49-0.31,0.78-0.86,0.76-1.44c-0.02-0.58-0.35-1.11-0.86-1.39c-0.51-0.28-1.13-0.26-1.63,0.04
	c-1.95,1.21-4.26,1.7-6.53,1.4l6.06-8.95c0.33-0.49,0.37-1.11,0.12-1.64c-0.26-0.53-0.77-0.88-1.36-0.92
	c-0.58-0.04-1.15,0.23-1.48,0.72l-6.06,8.95h0c-1.13-2-1.53-4.32-1.13-6.58c0.09-0.57-0.12-1.16-0.57-1.53
	c-0.45-0.37-1.06-0.48-1.61-0.28c-0.55,0.2-0.95,0.67-1.05,1.25c-0.63,3.55,0.23,7.19,2.36,10.09l-4.56,6.73h-3.19
	c-0.8-1.79-1.04-3.79-0.68-5.72c0.22-0.54,0.13-1.16-0.23-1.62c-0.36-0.46-0.93-0.69-1.51-0.62c-0.58,0.08-1.07,0.46-1.3,0.99
	c-0.65,2.29-0.56,4.73,0.26,6.96h-6.39c-0.42-4.4,0.82-8.81,3.48-12.34C45.5,23.82,63.03,19.58,68.41,18.49L68.41,18.49z
	 M16.13,35.37c0.49-0.18,0.87-0.59,1.01-1.1c0.14-0.51,0.03-1.05-0.3-1.46c-2.96-3.67-2.18-7.88,1.05-9.79
	c2.51-1.48,8.08-0.51,10.43,5.53l0,0c0.14,0.36,0.41,0.66,0.75,0.85c0.34,0.18,0.74,0.24,1.12,0.16c0.38-0.08,0.72-0.3,0.96-0.6
	c0.99-1.41,2.47-2.41,4.14-2.81c1.68-0.4,3.44-0.18,4.97,0.63c-1.83,1.41-3.48,3.05-4.91,4.87c-2,2.66-3.36,5.74-3.97,9.01
	c-0.6-1.6-1.11-3.23-1.53-4.88c-0.14-0.56-0.58-1.01-1.14-1.17c-0.56-0.16-1.16-0.01-1.58,0.4c-0.42,0.4-0.59,1-0.46,1.57
	c0.81,3.25,1.96,6.4,3.42,9.42h-18.2c-0.43-0.72-0.73-1.51-0.87-2.34c-0.22-1.76,0.16-3.53,1.09-5.04
	C13.04,37.1,14.46,35.96,16.13,35.37L16.13,35.37z M72.53,92.41H34.82v-2.53h37.71V92.41z M91.2,70.56
	C85.27,80.88,79.14,83.4,75.29,86.07v0c-0.5,0.35-1.09,0.54-1.7,0.53H33.76c-0.61,0-1.2-0.19-1.7-0.53
	c-3.86-2.68-9.99-5.32-15.91-15.52c-4.45-7.65-4.53-14.92-5.22-20.13c-0.05-0.32,0.05-0.64,0.25-0.89
	c0.26-0.29,39.56-0.31,64.44-0.3h0c0.13,0.02,0.25,0.02,0.38,0c11.22,0.01,19.42,0.02,19.6,0.02c0.27,0.04,0.5,0.18,0.66,0.4
	c0.15,0.22,0.21,0.49,0.15,0.76C95.73,55.65,95.6,62.88,91.2,70.56L91.2,70.56z M93.87,45.98h-11.3l6.13-3.16
	c0.52-0.27,0.85-0.8,0.87-1.38c0.03-0.58-0.26-1.13-0.75-1.45c-0.49-0.32-1.11-0.35-1.63-0.09l-8.64,4.46v0
	c0.02-2.01,0.71-3.95,1.96-5.51c0.36-0.46,0.45-1.07,0.23-1.62c-0.21-0.54-0.7-0.93-1.28-1.02c-0.58-0.09-1.16,0.14-1.52,0.59
	c-2.07,2.58-3,5.89-2.58,9.17H71.6c0.96-4.12,1.43-8.34,1.41-12.57c9.62-1.38,20.84,1.6,24.88,2.83
	C96.76,39.57,95.42,42.82,93.87,45.98L93.87,45.98z"/>
</svg>
