<?xml version="1.0" encoding="utf-8"?>
<!-- Generator: Adobe Illustrator 27.9.0, SVG Export Plug-In . SVG Version: 6.00 Build 0)  -->
<svg version="1.1" id="Layer_1" xmlns="http://www.w3.org/2000/svg" xmlns:xlink="http://www.w3.org/1999/xlink" x="0px" y="0px"
	 viewBox="0 0 110 110" style="enable-background:new 0 0 110 110;" xml:space="preserve">
<path d="M94.31,18.08H16.47c-6.31,0-11.45,5.13-11.45,11.45v50.36c0,6.31,5.13,11.45,11.45,11.45h77.84
	c6.31,0,11.45-5.13,11.45-11.45V29.52C105.76,23.21,100.62,18.08,94.31,18.08z M101.18,29.52v17.17H64.55v-8.01
	c0-0.72-0.34-1.41-0.92-1.84c-0.58-0.43-1.33-0.56-2.02-0.36l-14.28,4.28c-1.54-1.49-3.49-2.56-5.67-3l0-15.11h52.65
	C98.1,22.66,101.18,25.74,101.18,29.52L101.18,29.52z M56.59,69.59h-6.52l-4.42-11.05c0.6-0.39,1.16-0.85,1.67-1.34l4.9,1.47
	L56.59,69.59z M39.37,42.11c3.79,0,6.87,3.08,6.87,6.87c0,3.79-3.08,6.87-6.87,6.87s-6.87-3.08-6.87-6.87
	C32.5,45.19,35.58,42.11,39.37,42.11z M28.74,53.21l-9.98,2.99V41.76l9.98,2.99c-0.52,1.31-0.82,2.74-0.82,4.23
	C27.92,50.48,28.22,51.9,28.74,53.21L28.74,53.21z M26.52,58.66l4.9-1.47c0.51,0.5,1.07,0.95,1.67,1.34l-4.42,11.05h-6.52
	L26.52,58.66z M49.99,53.21c0.52-1.31,0.82-2.74,0.82-4.23c0-1.49-0.3-2.92-0.82-4.23l9.98-2.99v14.45L49.99,53.21z M16.48,22.65
	h20.6v15.11c-2.18,0.44-4.13,1.51-5.67,3l-14.28-4.28c-0.69-0.21-1.44-0.07-2.02,0.36c-0.58,0.43-0.92,1.11-0.92,1.83v8.01H9.61
	V29.52C9.61,25.74,12.69,22.66,16.48,22.65L16.48,22.65z M9.61,79.89V51.27h4.58v8.01c0,0.72,0.34,1.41,0.92,1.84
	c0.4,0.3,0.88,0.45,1.37,0.45c0.22,0,0.44-0.03,0.66-0.1l3.78-1.13l-4.27,10.68c-0.28,0.7-0.2,1.5,0.23,2.13
	c0.43,0.63,1.13,1.01,1.89,1.01h11.45c0.94,0,1.78-0.57,2.13-1.44l4.74-11.86v25.89h-20.6C12.69,86.75,9.61,83.67,9.61,79.89
	L9.61,79.89z M94.31,86.75H41.66V60.87l4.74,11.86c0.35,0.87,1.19,1.44,2.13,1.44h11.45c0.76,0,1.47-0.38,1.9-1.01
	c0.43-0.63,0.51-1.43,0.23-2.13l-4.27-10.68l3.78,1.13c0.22,0.07,0.44,0.1,0.66,0.1c0.49,0,0.97-0.16,1.37-0.45
	c0.58-0.43,0.92-1.11,0.92-1.84v-8.01h36.63v28.62C101.18,83.68,98.1,86.76,94.31,86.75L94.31,86.75z"/>
</svg>
