<?xml version="1.0" encoding="utf-8"?>
<!-- Generator: Adobe Illustrator 27.9.0, SVG Export Plug-In . SVG Version: 6.00 Build 0)  -->
<svg version="1.1" id="Layer_1" xmlns="http://www.w3.org/2000/svg" xmlns:xlink="http://www.w3.org/1999/xlink" x="0px" y="0px"
	 viewBox="0 0 110 110" style="enable-background:new 0 0 110 110;" xml:space="preserve">
<g>
	<path d="M100.98,77.61l-3.32-5.81c-1.37-2.4-3.58-4.11-6.24-4.83c-2.65-0.71-5.45-0.33-7.9,1.09L56.13,86.79l-20.9-37.92l1.32-0.74
		c2.14-1.19,2.92-3.92,1.73-6.07L20.56,9.89c-0.58-1.05-1.53-1.8-2.67-2.13c-1.15-0.33-2.35-0.19-3.39,0.39l-5.37,3
		c-2.14,1.19-2.92,3.92-1.74,6.07L25.13,49.4c0.58,1.05,1.53,1.8,2.67,2.13c1.13,0.33,2.36,0.18,3.39-0.39l1.06-0.59l24.57,44.58
		c2.78,4.87,8,7.89,13.62,7.89c2.37,0,4.65-0.53,6.79-1.56l19.31-9.39c2.55-1.24,4.5-3.52,5.34-6.24
		C102.72,83.08,102.39,80.09,100.98,77.61z M90.53,70.28c1.77,0.48,3.25,1.62,4.16,3.22l3.32,5.81c0.96,1.68,1.18,3.63,0.6,5.49
		c-0.57,1.85-1.84,3.33-3.57,4.17l-19.31,9.39c-5.75,2.8-12.75,0.64-15.93-4.92l-2.01-3.64l27.54-18.84
		C86.92,70.05,88.77,69.8,90.53,70.28z M16.66,11c0.09,0,0.19,0.01,0.28,0.04c0.27,0.08,0.49,0.25,0.62,0.49L35.3,43.72
		c0.28,0.51,0.1,1.15-0.41,1.43l-5.37,3c-0.24,0.13-0.52,0.17-0.78,0.09c-0.27-0.08-0.49-0.25-0.62-0.5L10.39,15.56
		c-0.28-0.51-0.1-1.15,0.41-1.43l5.37-3C16.32,11.05,16.49,11,16.66,11z"/>
	<path d="M70.88,94.79c0.3,0.54,0.87,0.88,1.5,0.88c0.29,0,0.58-0.08,0.83-0.22l18.96-10.58c0.4-0.22,0.69-0.59,0.81-1.03
		c0.13-0.44,0.07-0.9-0.15-1.3c-0.22-0.4-0.59-0.69-1.03-0.81c-0.44-0.13-0.9-0.07-1.3,0.15L71.55,92.46
		C70.72,92.92,70.43,93.97,70.88,94.79z"/>
	<path d="M67.6,88.82c0.3,0.54,0.87,0.88,1.5,0.88c0.29,0,0.58-0.07,0.83-0.22l18.96-10.58c0.4-0.22,0.69-0.59,0.81-1.03
		c0.13-0.44,0.07-0.9-0.15-1.3v0c-0.46-0.82-1.5-1.12-2.33-0.66L68.26,86.5C67.44,86.96,67.14,88,67.6,88.82z"/>
	<path d="M66.14,67.16c6.39,0,11.58-5.2,11.58-11.58c0-6.39-5.2-11.58-11.58-11.58c-6.39,0-11.58,5.2-11.58,11.58
		C54.56,61.97,59.75,67.16,66.14,67.16z M66.14,47.42c4.5,0,8.16,3.66,8.16,8.16c0,4.5-3.66,8.16-8.16,8.16
		c-4.5,0-8.16-3.66-8.16-8.16C57.98,51.08,61.64,47.42,66.14,47.42z"/>
	<path d="M66.14,41.53C66.14,41.53,66.14,41.53,66.14,41.53c2.07,0,4.05,0.44,5.9,1.29c0.23,0.11,0.47,0.16,0.72,0.16
		c0.66,0,1.27-0.39,1.55-0.99c0.19-0.41,0.21-0.88,0.05-1.31c-0.16-0.43-0.47-0.77-0.89-0.96c-2.31-1.07-4.78-1.61-7.34-1.61
		c-0.94,0-1.71,0.77-1.71,1.71C64.43,40.76,65.2,41.53,66.14,41.53z"/>
	<path d="M80.19,55.58c0,0.94,0.77,1.71,1.71,1.71s1.71-0.77,1.71-1.71c0-4.71-1.84-9.12-5.2-12.43c-0.67-0.66-1.76-0.65-2.42,0.02
		c-0.66,0.67-0.65,1.76,0.02,2.42C78.71,48.24,80.19,51.79,80.19,55.58z"/>
	<path d="M66.14,73.06c0.94,0,1.71-0.77,1.71-1.71s-0.77-1.71-1.71-1.71c-7.75,0-14.05-6.31-14.05-14.06c0-0.94-0.77-1.71-1.71-1.71
		c-0.94,0-1.71,0.77-1.71,1.71C48.66,65.22,56.5,73.06,66.14,73.06z"/>
</g>
</svg>
