<?xml version="1.0" encoding="utf-8"?>
<!-- Generator: Adobe Illustrator 27.9.0, SVG Export Plug-In . SVG Version: 6.00 Build 0)  -->
<svg version="1.1" id="Layer_1" xmlns="http://www.w3.org/2000/svg" xmlns:xlink="http://www.w3.org/1999/xlink" x="0px" y="0px"
	 viewBox="0 0 110 110" style="enable-background:new 0 0 110 110;" xml:space="preserve">
<g>
	<path d="M52.97,31.08l-24.5-6.23c-0.55-0.14-1.13-0.06-1.62,0.23c-0.49,0.29-0.84,0.76-0.98,1.31c-0.8,3.17-1.63,6.26-2.42,9.24
		c-1.9,7.13-3.62,13.61-4.62,19.29c0,0.01-0.01,0.03-0.01,0.04c-1.33,7.54-1.38,13.67,1.16,17.99c1.31,2.24,3.28,3.88,5.85,4.92
		l-4.26,16.78l-6.82-1.73c-1.16-0.29-2.31,0.4-2.6,1.55c-0.29,1.15,0.4,2.31,1.55,2.6l17.78,4.52c0.18,0.04,0.36,0.07,0.53,0.07
		c0.96,0,1.83-0.65,2.07-1.61c0.29-1.15-0.4-2.31-1.55-2.6l-6.81-1.73l4.26-16.78c0.52,0.06,1.04,0.1,1.54,0.1h0
		c11.97,0,15.84-15.92,20.72-36.08c0.73-3,1.48-6.1,2.28-9.27C54.8,32.54,54.11,31.37,52.97,31.08L52.97,31.08z M31.51,74.75
		c-0.81,0-1.68-0.12-2.6-0.35c-2.47-0.63-4.19-1.81-5.25-3.61c-1.73-2.95-1.78-7.57-0.92-13.27h21.3
		C40.98,67.83,37.46,74.75,31.51,74.75L31.51,74.75z M48.07,41.94c-0.96,3.98-1.88,7.78-2.82,11.29l-21.74,0
		c1.01-4.98,2.5-10.58,4.07-16.49c0.63-2.34,1.27-4.75,1.9-7.21l20.36,5.18C49.23,37.17,48.64,39.59,48.07,41.94L48.07,41.94z"/>
	<path d="M99.3,94.46c-0.29-1.15-1.46-1.84-2.6-1.55l-6.82,1.73l-4.26-16.78c2.56-1.04,4.53-2.68,5.85-4.92
		c2.54-4.32,2.48-10.45,1.16-17.99c0-0.01,0-0.02-0.01-0.03c-1-5.68-2.72-12.16-4.62-19.29c-0.8-2.98-1.62-6.07-2.42-9.24
		c-0.14-0.55-0.49-1.02-0.98-1.31c-0.49-0.29-1.07-0.38-1.62-0.23l-24.5,6.23c-1.15,0.29-1.84,1.46-1.55,2.6
		c0.81,3.17,1.56,6.27,2.29,9.27c4.88,20.15,8.74,36.07,20.72,36.07c0.5,0,1.02-0.04,1.55-0.1l4.26,16.78l-6.81,1.73
		c-1.15,0.29-1.84,1.46-1.55,2.6c0.25,0.97,1.12,1.61,2.07,1.61c0.17,0,0.35-0.02,0.53-0.07l17.78-4.52
		C98.9,96.77,99.59,95.6,99.3,94.46L99.3,94.46z M81.95,29.53c0.64,2.46,1.28,4.87,1.9,7.22c1.57,5.92,3.06,11.5,4.07,16.49H66.19
		c-0.94-3.51-1.86-7.3-2.82-11.28c-0.57-2.36-1.16-4.78-1.77-7.25L81.95,29.53z M67.39,57.51h21.3c0.86,5.7,0.81,10.32-0.92,13.27
		c-1.06,1.8-2.77,2.98-5.25,3.61c-0.92,0.23-1.79,0.35-2.6,0.35C73.97,74.75,70.46,67.83,67.39,57.51L67.39,57.51z"/>
	<path d="M45.97,20.45c0.32,0.86,1.14,1.4,2.01,1.4c0.25,0,0.5-0.04,0.74-0.13c1.11-0.41,1.67-1.64,1.26-2.75l-3.47-9.33
		c-0.41-1.11-1.65-1.67-2.75-1.26c-1.11,0.41-1.67,1.64-1.26,2.75L45.97,20.45z"/>
	<path d="M62.71,21.27c0.25,0.09,0.5,0.13,0.74,0.13c0.87,0,1.69-0.53,2.01-1.4l3.47-9.33c0.41-1.11-0.15-2.34-1.26-2.75
		c-1.1-0.41-2.34,0.15-2.75,1.26l-3.47,9.33C61.04,19.63,61.61,20.86,62.71,21.27L62.71,21.27z"/>
	<path d="M57.86,13.6V5.43c0-1.18-0.96-2.14-2.14-2.14c-1.18,0-2.14,0.96-2.14,2.14v8.17c0,1.18,0.96,2.14,2.14,2.14
		C56.9,15.74,57.86,14.78,57.86,13.6z"/>
</g>
</svg>
