<?xml version="1.0" encoding="utf-8"?>
<!-- Generator: Adobe Illustrator 27.9.0, SVG Export Plug-In . SVG Version: 6.00 Build 0)  -->
<svg version="1.1" id="Layer_1" xmlns="http://www.w3.org/2000/svg" xmlns:xlink="http://www.w3.org/1999/xlink" x="0px" y="0px"
	 viewBox="0 0 110 110" style="enable-background:new 0 0 110 110;" xml:space="preserve">
<g>
	<path d="M77.53,28.01C77.54,28.01,77.54,28.01,77.53,28.01c0.74-0.03,1.44-0.34,1.97-0.85l8-8c0.62-0.57,0.96-1.34,0.98-2.14
		c0.02-0.8-0.29-1.59-0.86-2.15c-0.55-0.56-1.32-0.88-2.11-0.88c-0.01,0-0.02,0-0.04,0c-0.8,0.01-1.57,0.35-2.12,0.93l-8.04,7.9
		c-0.55,0.55-0.86,1.3-0.86,2.09c0,0.78,0.31,1.54,0.87,2.09C75.92,27.66,76.71,28.01,77.53,28.01z"/>
	<path d="M82.23,40.91c-0.53,0.91-0.53,2.05,0,2.96c0.53,0.91,1.51,1.48,2.57,1.48h11.29c1.06,0,2.04-0.57,2.57-1.48
		c0.53-0.91,0.53-2.05,0-2.96c-0.53-0.91-1.51-1.48-2.57-1.48H84.8C83.74,39.43,82.76,40,82.23,40.91z"/>
	<path d="M40.41,27.15c0.57,0.54,1.32,0.85,2.12,0.86c0.01,0,0.01,0,0.02,0c0.79,0,1.53-0.31,2.09-0.87
		c0.56-0.55,0.87-1.32,0.87-2.11c0-0.78-0.33-1.55-0.89-2.1l-8.01-7.87c-0.58-0.61-1.35-0.95-2.15-0.96
		c-0.76,0.06-1.58,0.31-2.14,0.88c-0.56,0.57-0.88,1.35-0.86,2.15c0.02,0.8,0.36,1.57,0.95,2.11L40.41,27.15z"/>
	<path d="M77.64,56.87c-0.27,0-0.54,0.04-0.8,0.11c-0.99,0.28-1.77,1.07-2.04,2.06c-0.27,0.99,0,2.07,0.7,2.82l7.99,7.99
		c0.52,0.52,1.22,0.82,1.96,0.84c0.76,0,1.5-0.31,2.06-0.87c0.55-0.55,0.87-1.31,0.87-2.09c0-0.79-0.31-1.54-0.87-2.1l-7.86-7.99
		C79.09,57.14,78.36,56.87,77.64,56.87z"/>
	<path d="M62.14,19.96c0.56-0.56,0.87-1.3,0.87-2.1V6.68c0-1.05-0.57-2.04-1.48-2.57c-0.46-0.26-0.97-0.4-1.48-0.4
		c-0.51,0-1.02,0.13-1.48,0.4c-0.91,0.53-1.48,1.51-1.48,2.57v11.18c0,0.79,0.31,1.54,0.87,2.09
		C59.07,21.08,61.03,21.08,62.14,19.96z"/>
	<path d="M52.78,34.89c1.99-1.96,4.61-3.04,7.4-3.04c0.02,0,0.03,0,0.05,0c2.81,0.01,5.44,1.12,7.43,3.1
		c1.98,1.99,3.07,4.63,3.07,7.44c-0.02,2.84-1.15,5.5-3.16,7.48c-0.59,0.58-1.24,1.06-1.93,1.48l4.32,4.28
		c0.66-0.49,1.3-1.02,1.89-1.61c3.1-3.11,4.81-7.24,4.81-11.63c-0.02-4.41-1.76-8.56-4.89-11.67c-3.12-3.1-7.26-4.8-11.66-4.8
		c-0.01,0-0.03,0-0.04,0v0c-4.39,0.03-8.51,1.77-11.59,4.9c-0.6,0.6-1.12,1.26-1.61,1.93l4.31,4.27
		C51.62,36.26,52.13,35.53,52.78,34.89z"/>
	<path d="M100.31,90.59l-83.5-83.5c-1.02-1.02-2.66-1.02-3.68,0c-1.02,1.02-1.02,2.66,0,3.68l18.24,18.24
		c-0.1,0.27-0.16,0.56-0.16,0.87v22.6c-8.65,1.14-15.36,8.55-15.36,17.51c0,0.07,0,0.14,0.01,0.21l0.03,2.56h4
		c0.6,7.01,6.48,12.54,13.64,12.54s13.05-5.52,13.64-12.54h4l0.04-2.78c0-8.76-6.41-16.04-14.79-17.42V34.05l60.21,60.21
		c0.51,0.51,1.17,0.76,1.84,0.76s1.33-0.25,1.84-0.76C101.33,93.25,101.33,91.6,100.31,90.59z M33.53,81.18
		c-4.9,0-8.94-3.69-9.52-8.43h19.04C42.47,77.5,38.43,81.18,33.53,81.18z"/>
	<path d="M33.68,91.24c-0.69-0.04-1.33,0.21-1.79,0.67c0,0,0,0,0,0c-0.39,0.43-0.61,0.99-0.62,1.58l0,8.92
		c-0.03,0.66,0.21,1.28,0.65,1.74c0.44,0.46,1.05,0.72,1.68,0.72c0.62,0,1.22-0.25,1.66-0.69c0.01-0.01,0.01-0.01,0.02-0.02
		c0.44-0.45,0.68-1.07,0.66-1.7l0.07-8.89c0-0.62-0.24-1.2-0.69-1.65C34.9,91.49,34.3,91.24,33.68,91.24z"/>
	<path d="M20.42,85.67c-0.81-0.22-1.67,0.02-2.26,0.61l-6.3,6.3c-0.59,0.59-0.82,1.45-0.61,2.26c0.22,0.8,0.85,1.44,1.65,1.65
		c0.81,0.22,1.67-0.02,2.26-0.61l6.3-6.3c0.59-0.59,0.82-1.46,0.61-2.26C21.86,86.52,21.23,85.89,20.42,85.67z"/>
	<path d="M48.96,86.16c-0.44-0.44-1.03-0.69-1.65-0.68c-1.25,0-2.34,1.09-2.34,2.34c0,0.63,0.24,1.21,0.68,1.65l6.24,6.24
		c0.59,0.59,1.45,0.82,2.26,0.61c0.4-0.11,0.76-0.32,1.05-0.61c0.29-0.29,0.5-0.65,0.61-1.05c0.22-0.81-0.02-1.67-0.61-2.26
		L48.96,86.16z"/>
</g>
</svg>
