<?xml version="1.0" encoding="utf-8"?>
<!-- Generator: Adobe Illustrator 27.9.0, SVG Export Plug-In . SVG Version: 6.00 Build 0)  -->
<svg version="1.1" id="Layer_1" xmlns="http://www.w3.org/2000/svg" xmlns:xlink="http://www.w3.org/1999/xlink" x="0px" y="0px"
	 viewBox="0 0 110 110" style="enable-background:new 0 0 110 110;" xml:space="preserve">
<g>
	<path d="M54.58,9.78C29.48,9.78,9.06,30.2,9.06,55.3s20.42,45.52,45.52,45.52S100.1,80.39,100.1,55.3S79.68,9.78,54.58,9.78
		L54.58,9.78z M54.58,98.13c-23.62,0-42.83-19.22-42.83-42.83s19.22-42.83,42.83-42.83S97.41,31.68,97.41,55.3
		S78.2,98.13,54.58,98.13L54.58,98.13z"/>
	<path d="M54.58,19.51c-19.73,0-35.78,16.05-35.78,35.79s16.05,35.79,35.78,35.79S90.37,75.03,90.37,55.3S74.31,19.51,54.58,19.51
		L54.58,19.51z M83.88,70.66L57.26,55.3l26.61-15.37c2.42,4.6,3.81,9.82,3.81,15.37S86.3,66.07,83.88,70.66z M82.52,37.62
		l-26.6,15.36V22.26C67.11,22.71,76.87,28.72,82.52,37.62z M53.24,22.26v30.71l-26.6-15.36C32.29,28.72,42.05,22.71,53.24,22.26
		L53.24,22.26z M25.28,39.93L51.9,55.3L25.28,70.66c-2.42-4.6-3.81-9.82-3.81-15.37S22.86,44.53,25.28,39.93z M26.64,72.98
		l26.6-15.36v30.71C42.05,87.88,32.29,81.87,26.64,72.98z M55.92,88.34V57.62l26.6,15.36C76.87,81.87,67.11,87.88,55.92,88.34
		L55.92,88.34z"/>
	<path d="M33.5,60.01c2.6,0,4.72-2.11,4.72-4.71s-2.11-4.71-4.72-4.71s-4.72,2.11-4.72,4.71S30.9,60.01,33.5,60.01z M33.5,53.26
		c1.12,0,2.04,0.91,2.04,2.04s-0.92,2.04-2.04,2.04c-1.12,0-2.04-0.92-2.04-2.04S32.38,53.26,33.5,53.26z"/>
	<path d="M75.66,50.58c-2.6,0-4.72,2.11-4.72,4.71s2.12,4.71,4.72,4.71s4.71-2.11,4.71-4.71S78.26,50.58,75.66,50.58z M75.66,57.33
		c-1.12,0-2.04-0.91-2.04-2.04s0.92-2.04,2.04-2.04s2.04,0.91,2.04,2.04S76.78,57.33,75.66,57.33z"/>
	<path d="M46.4,69.46c-2.25-1.3-5.14-0.53-6.44,1.73c-1.3,2.25-0.53,5.14,1.73,6.45c0.74,0.43,1.55,0.63,2.35,0.63
		c1.63,0,3.22-0.85,4.09-2.35C49.42,73.66,48.65,70.77,46.4,69.46L46.4,69.46z M45.8,74.57c-0.56,0.97-1.81,1.31-2.78,0.74
		c-0.97-0.56-1.31-1.81-0.74-2.78c0.38-0.65,1.06-1.02,1.77-1.02c0.34,0,0.69,0.09,1.01,0.27C46.03,72.35,46.36,73.6,45.8,74.57
		L45.8,74.57z"/>
	<path d="M60.56,38.26c0.33,1.22,1.11,2.23,2.2,2.87c0.74,0.43,1.55,0.63,2.34,0.63c1.63,0,3.22-0.85,4.1-2.36
		c1.3-2.25,0.52-5.14-1.73-6.44c-2.26-1.3-5.14-0.52-6.44,1.73C60.4,35.77,60.24,37.05,60.56,38.26L60.56,38.26z M63.36,36.03
		c0.27-0.47,0.71-0.81,1.23-0.95c0.18-0.05,0.35-0.07,0.53-0.07c0.35,0,0.7,0.09,1.01,0.27c0.97,0.56,1.31,1.81,0.74,2.78
		c-0.56,0.97-1.81,1.3-2.78,0.74c-0.47-0.27-0.81-0.71-0.95-1.24C63.01,37.04,63.09,36.49,63.36,36.03L63.36,36.03z"/>
	<path d="M44.05,41.76c0.8,0,1.61-0.2,2.35-0.63c2.25-1.3,3.02-4.19,1.73-6.45c-1.3-2.25-4.19-3.02-6.44-1.73
		c-2.25,1.3-3.02,4.19-1.73,6.45C40.83,40.91,42.42,41.76,44.05,41.76L44.05,41.76z M43.02,35.28c0.32-0.19,0.67-0.27,1.01-0.27
		c0.7,0,1.39,0.36,1.77,1.02c0.56,0.97,0.23,2.22-0.74,2.78c-0.97,0.56-2.22,0.23-2.78-0.74C41.72,37.09,42.05,35.84,43.02,35.28
		L43.02,35.28z"/>
	<path d="M62.76,69.46c-1.09,0.63-1.87,1.65-2.2,2.87c-0.33,1.22-0.16,2.49,0.47,3.58c0.87,1.51,2.46,2.35,4.09,2.35
		c0.8,0,1.61-0.2,2.35-0.63c2.25-1.3,3.02-4.19,1.73-6.45C67.9,68.94,65.01,68.17,62.76,69.46L62.76,69.46z M66.14,75.31
		c-0.47,0.27-1.02,0.34-1.55,0.2c-0.52-0.14-0.96-0.48-1.23-0.95v0c-0.27-0.47-0.34-1.02-0.2-1.54c0.14-0.52,0.48-0.97,0.95-1.24
		c0.32-0.19,0.67-0.27,1.01-0.27c0.7,0,1.39,0.36,1.77,1.01C67.44,73.51,67.11,74.75,66.14,75.31L66.14,75.31z"/>
	<path d="M42.77,56.73c0.26,0.26,0.61,0.39,0.95,0.39c0.34,0,0.68-0.13,0.95-0.39c0.52-0.52,0.53-1.37,0-1.9l-0.97-0.97
		c-0.52-0.53-1.37-0.53-1.9,0c-0.52,0.52-0.53,1.37,0,1.9L42.77,56.73z"/>
	<path d="M66.39,53.86c-0.52-0.52-1.38-0.52-1.9,0c-0.52,0.52-0.52,1.38,0,1.9l0.97,0.97c0.26,0.26,0.61,0.39,0.95,0.39
		c0.34,0,0.69-0.13,0.95-0.39c0.52-0.52,0.52-1.38,0-1.9L66.39,53.86z"/>
	<path d="M48.24,66.64c0.12,0,0.23-0.02,0.35-0.05l1.33-0.36c0.72-0.19,1.14-0.93,0.95-1.64c-0.2-0.72-0.93-1.13-1.64-0.95L47.89,64
		c-0.72,0.19-1.14,0.93-0.95,1.64C47.11,66.25,47.65,66.64,48.24,66.64L48.24,66.64z"/>
	<path d="M60.57,44l-1.33,0.36c-0.72,0.19-1.14,0.93-0.95,1.64c0.16,0.6,0.7,0.99,1.29,0.99c0.11,0,0.23-0.02,0.35-0.05l1.33-0.36
		c0.72-0.19,1.14-0.93,0.95-1.64C62.02,44.23,61.29,43.8,60.57,44L60.57,44z"/>
	<path d="M61.37,66.13l0.36-1.33c0.2-0.72-0.23-1.45-0.95-1.64c-0.73-0.19-1.45,0.23-1.64,0.95l-0.36,1.33
		c-0.2,0.72,0.23,1.45,0.95,1.64c0.12,0.03,0.23,0.05,0.35,0.05C60.67,67.12,61.21,66.73,61.37,66.13L61.37,66.13z"/>
	<path d="M47.79,44.46l-0.36,1.33c-0.19,0.72,0.23,1.45,0.95,1.64c0.12,0.03,0.23,0.05,0.35,0.05c0.59,0,1.13-0.39,1.29-0.99
		l0.36-1.33c0.19-0.72-0.23-1.45-0.95-1.64C48.72,43.33,47.98,43.74,47.79,44.46L47.79,44.46z"/>
	<path d="M35.97,73.9c-0.23-0.71-0.99-1.09-1.69-0.86c-0.7,0.23-1.09,0.99-0.86,1.69l0.43,1.31c0.19,0.57,0.71,0.93,1.27,0.93
		c0.14,0,0.28-0.02,0.41-0.07c0.7-0.23,1.09-0.99,0.86-1.69L35.97,73.9z"/>
	<path d="M73.19,36.69c0.19,0.57,0.71,0.93,1.27,0.93c0.14,0,0.28-0.02,0.41-0.07c0.71-0.23,1.09-0.99,0.86-1.69l-0.43-1.31
		c-0.23-0.7-0.99-1.09-1.69-0.86c-0.71,0.23-1.09,0.99-0.86,1.69L73.19,36.69z"/>
	<path d="M62.73,81l-1.34-0.29c-0.74-0.15-1.44,0.31-1.59,1.03c-0.15,0.72,0.31,1.44,1.03,1.59l1.34,0.29
		c0.09,0.02,0.19,0.03,0.28,0.03c0.62,0,1.18-0.43,1.31-1.06C63.92,81.87,63.46,81.16,62.73,81L62.73,81z"/>
	<path d="M46.43,29.59l1.35,0.29c0.09,0.02,0.19,0.03,0.28,0.03c0.62,0,1.18-0.43,1.31-1.06c0.15-0.73-0.31-1.44-1.03-1.59
		l-1.35-0.29c-0.73-0.15-1.44,0.31-1.59,1.03C45.24,28.72,45.7,29.44,46.43,29.59L46.43,29.59z"/>
	<path d="M82.81,60.99c-0.55-0.49-1.39-0.45-1.89,0.1L80,62.11c-0.5,0.55-0.45,1.4,0.1,1.89c0.26,0.23,0.58,0.34,0.9,0.34
		c0.37,0,0.73-0.15,0.99-0.45l0.92-1.02C83.41,62.33,83.36,61.48,82.81,60.99L82.81,60.99z"/>
	<path d="M26.35,49.6c0.26,0.23,0.58,0.34,0.9,0.34c0.37,0,0.73-0.15,1-0.45l0.92-1.02c0.5-0.55,0.45-1.4-0.1-1.9
		c-0.55-0.49-1.39-0.45-1.89,0.1l-0.92,1.02C25.75,48.26,25.8,49.11,26.35,49.6L26.35,49.6z"/>
	<path d="M50.98,82.02l-1.09-0.83c-0.59-0.44-1.43-0.33-1.88,0.26c-0.45,0.59-0.33,1.43,0.26,1.88l1.09,0.83
		c0.24,0.18,0.53,0.27,0.81,0.27c0.4,0,0.8-0.18,1.07-0.53C51.69,83.31,51.57,82.47,50.98,82.02L50.98,82.02z"/>
	<path d="M58.18,28.57l1.09,0.83c0.24,0.19,0.53,0.27,0.81,0.27c0.4,0,0.8-0.18,1.07-0.53c0.45-0.59,0.33-1.43-0.26-1.88l-1.09-0.83
		c-0.58-0.45-1.43-0.33-1.88,0.26C57.47,27.28,57.58,28.12,58.18,28.57L58.18,28.57z"/>
	<path d="M75.93,71.77l-1.27,0.53c-0.68,0.29-1,1.07-0.72,1.75c0.21,0.51,0.71,0.82,1.24,0.82c0.17,0,0.35-0.03,0.52-0.1l1.27-0.53
		c0.68-0.29,1-1.07,0.72-1.75C77.4,71.8,76.61,71.48,75.93,71.77L75.93,71.77z"/>
	<path d="M32.71,38.93c0.17,0,0.35-0.03,0.52-0.1l1.27-0.53c0.68-0.29,1-1.07,0.72-1.75c-0.29-0.69-1.08-1-1.76-0.72l-1.27,0.53
		c-0.68,0.29-1,1.07-0.72,1.75C31.69,38.62,32.19,38.93,32.71,38.93L32.71,38.93z"/>
	<path d="M80.51,47.91c0.06,0.01,0.12,0.01,0.18,0.01c0.66,0,1.24-0.49,1.33-1.17l0.18-1.37c0.09-0.74-0.43-1.41-1.16-1.51
		c-0.71-0.07-1.4,0.43-1.51,1.16l-0.18,1.37C79.25,47.14,79.77,47.81,80.51,47.91L80.51,47.91z"/>
	<path d="M28.65,62.68c-0.74-0.09-1.4,0.43-1.5,1.16l-0.17,1.37c-0.09,0.74,0.43,1.41,1.16,1.5c0.06,0.01,0.11,0.01,0.17,0.01
		c0.67,0,1.24-0.5,1.33-1.17l0.17-1.37C29.9,63.45,29.38,62.77,28.65,62.68L28.65,62.68z"/>
</g>
</svg>
