<?xml version="1.0" encoding="utf-8"?>
<!-- Generator: Adobe Illustrator 27.9.0, SVG Export Plug-In . SVG Version: 6.00 Build 0)  -->
<svg version="1.1" id="Layer_1" xmlns="http://www.w3.org/2000/svg" xmlns:xlink="http://www.w3.org/1999/xlink" x="0px" y="0px"
	 viewBox="0 0 150 110" style="enable-background:new 0 0 150 110;" xml:space="preserve">
<style type="text/css">
	.st0{fill:none;}
</style>
<g>
	<polygon class="st0" points="116.73,51.5 115.4,51.5 116.07,52.39 	"/>
	<path d="M143.72,63.03h-0.82V48.38c0-0.23-0.05-0.46-0.16-0.66l-2.15-4.3v-6.56c0-0.82-0.67-1.49-1.49-1.49h-6.91
		c-0.82,0-1.49,0.67-1.49,1.49v6.56l-2.15,4.3c-0.1,0.2-0.16,0.43-0.16,0.66v14.65h-10.86v-4.94l6.62-8.82
		c0.34-0.45,0.39-1.05,0.14-1.56c-0.25-0.51-0.76-0.82-1.33-0.82h-13.83c-0.57,0-1.08,0.31-1.33,0.82c-0.25,0.51-0.2,1.1,0.14,1.55
		l6.62,8.82v4.94H97.63c-0.82,0-1.49,0.67-1.49,1.49v9.22c0,0.82,0.67,1.49,1.49,1.49h3.12v12.34c0,0.82,0.67,1.49,1.49,1.49h4.61
		c0.57,0,1.08-0.31,1.33-0.82l6.5-13.01h11.99l6.5,13.01c0.25,0.51,0.76,0.82,1.33,0.82h4.61c0.82,0,1.49-0.67,1.49-1.49V75.22h3.12
		c0.82,0,1.49-0.67,1.49-1.49v-9.22C145.21,63.7,144.54,63.03,143.72,63.03z M131.38,48.73l2.15-4.3c0.1-0.2,0.16-0.43,0.16-0.67
		v-5.43h3.94v5.43c0,0.23,0.05,0.46,0.16,0.67l2.15,4.29v14.29h-8.55L131.38,48.73z M112.12,49.87h7.89l-3.94,5.25L112.12,49.87z
		 M105.93,86.08h-2.2V75.22h7.63L105.93,86.08z M137.63,86.08h-2.21l-5.43-10.86h7.63V86.08z M142.24,72.25H99.11V66h43.12V72.25z"
		/>
	<path d="M90.71,39.98h-3.12V27.64c0-3.36-2.73-6.1-6.1-6.1H21.57c-3.36,0-6.1,2.74-6.1,6.1v12.34h-0.82
		c-5.9,0-10.71,4.8-10.71,10.7c0,5.07,3.6,9.48,8.56,10.49l0.66,0.13l0,12.43c0,2.66,1.73,4.99,4.29,5.79l1.1,0.35l-5.1,6.8
		c-0.34,0.45-0.39,1.05-0.14,1.56c0.25,0.51,0.76,0.82,1.33,0.82h6.91c0.34,0,0.66-0.11,0.93-0.33l11.11-8.89h38.14l11.12,8.89
		c0.27,0.21,0.59,0.33,0.93,0.33h6.91c0.57,0,1.08-0.31,1.33-0.82c0.25-0.51,0.2-1.1-0.14-1.55l-5.1-6.8l1.1-0.35
		c2.57-0.8,4.29-3.13,4.29-5.79V61.31l0.66-0.13c4.96-1.01,8.56-5.42,8.56-10.49C101.42,44.78,96.62,39.98,90.71,39.98z
		 M18.45,27.64c0-1.72,1.4-3.12,3.12-3.12h59.92c1.72,0,3.12,1.4,3.12,3.12v12.34h-3.12c-0.82,0-1.49,0.67-1.49,1.49v21.14
		l-1.23-0.72c-1.33-0.78-2.75-1.17-4.2-1.17H30.79c-1.45,0-2.86,0.39-4.2,1.17l-1.23,0.72V41.47c0-0.82-0.67-1.49-1.49-1.49h-5.43
		V27.64z M79.97,67.64H25.4l0.72-1.23c0.98-1.67,2.77-2.71,4.68-2.71h43.79c1.91,0,3.7,1.04,4.68,2.71L79.97,67.64z M21.05,86.08
		h-3.42l4.69-6.25h6.54L21.05,86.08z M87.74,86.08h-3.42l-7.81-6.25h6.54L87.74,86.08z M90.71,58.42c-0.82,0-1.49,0.67-1.49,1.49
		v13.83c0,1.72-1.4,3.12-3.12,3.12H19.27c-1.72,0-3.12-1.4-3.12-3.12V59.9c0-0.82-0.67-1.49-1.49-1.49c-4.26,0-7.73-3.47-7.73-7.73
		s3.47-7.73,7.73-7.73h7.73v26.17c0,0.82,0.67,1.49,1.49,1.49h57.62c0.82,0,1.49-0.67,1.49-1.49V42.95h7.73
		c4.26,0,7.73,3.47,7.73,7.73S94.98,58.42,90.71,58.42z"/>
</g>
</svg>
