<?xml version="1.0" encoding="utf-8"?>
<!-- Generator: Adobe Illustrator 27.9.0, SVG Export Plug-In . SVG Version: 6.00 Build 0)  -->
<svg version="1.1" id="Layer_1" xmlns="http://www.w3.org/2000/svg" xmlns:xlink="http://www.w3.org/1999/xlink" x="0px" y="0px"
	 viewBox="0 0 110 110" style="enable-background:new 0 0 110 110;" xml:space="preserve">
<g>
	<path d="M74.4,32.32c-0.01,0-0.02,0-0.03,0v0c-3.57,0.03-6.92,1.44-9.43,3.98c-2.51,2.54-3.88,5.91-3.86,9.48
		c0.02,3.57,1.42,6.92,3.96,9.44c2.53,2.51,5.88,3.89,9.44,3.89c0.01,0,0.02,0,0.03,0c3.57-0.01,6.92-1.41,9.45-3.94
		c2.52-2.53,3.91-5.89,3.91-9.46c-0.01-3.59-1.43-6.96-3.98-9.49C81.35,33.71,77.98,32.32,74.4,32.32z M80.47,51.8
		c-1.63,1.6-3.78,2.49-6.06,2.49c-0.02,0-0.03,0-0.05,0h-0.01c-2.28-0.03-4.42-0.95-6.01-2.58c-1.6-1.63-2.46-3.79-2.44-6.07
		c0.02-2.28,0.93-4.42,2.55-6.03c1.61-1.59,3.75-2.47,6.02-2.47c0.01,0,0.03,0,0.04,0c2.28,0.01,4.43,0.91,6.04,2.53
		c1.61,1.62,2.5,3.77,2.5,6.05C83.02,48.03,82.11,50.19,80.47,51.8z"/>
	<path d="M60.71,57.48c-0.75-0.2-1.55-0.03-2.14,0.45l-6.68,6.68c-0.45,0.45-0.7,1.07-0.71,1.7c0,0.64,0.25,1.24,0.7,1.7
		c0.45,0.46,1.05,0.71,1.69,0.72c0.63,0,1.24-0.25,1.7-0.69l6.5-6.5c0.61-0.61,0.85-1.5,0.63-2.33
		C62.19,58.36,61.54,57.71,60.71,57.48z"/>
	<path d="M88.58,34.01C88.58,34.01,88.58,34.01,88.58,34.01c0.6-0.03,1.17-0.27,1.6-0.69l6.5-6.5c0.5-0.46,0.78-1.09,0.8-1.74
		c0.01-0.65-0.24-1.29-0.7-1.75c-0.45-0.45-1.07-0.71-1.71-0.71c-0.01,0-0.02,0-0.03,0c-0.65,0.01-1.28,0.28-1.72,0.76l-6.54,6.43
		c-0.45,0.45-0.7,1.06-0.7,1.7c0,0.63,0.26,1.25,0.7,1.7C87.27,33.73,87.91,34.01,88.58,34.01z"/>
	<path d="M45.03,48.12h9.16c0.86,0,1.66-0.46,2.09-1.2c0.43-0.74,0.43-1.67,0-2.41c-0.43-0.74-1.23-1.21-2.09-1.21h-9.16
		c-0.86,0-1.66,0.46-2.09,1.21c-0.43,0.74-0.43,1.67,0,2.41C43.37,47.66,44.17,48.12,45.03,48.12z"/>
	<path d="M103.66,43.3h-9.18c-0.86,0-1.66,0.46-2.09,1.21c-0.43,0.74-0.43,1.67,0,2.41c0.43,0.74,1.23,1.2,2.09,1.2h9.18
		c0.86,0,1.66-0.46,2.09-1.2c0.43-0.74,0.43-1.67,0-2.41C105.32,43.77,104.52,43.3,103.66,43.3z"/>
	<path d="M58.39,33.32c0.47,0.44,1.08,0.69,1.72,0.7c0,0,0.01,0,0.01,0c0.64,0,1.24-0.25,1.7-0.7c0.45-0.45,0.71-1.08,0.71-1.72
		c0-0.64-0.27-1.26-0.72-1.71l-6.51-6.4c-0.47-0.5-1.1-0.77-1.75-0.78c-0.62,0.05-1.28,0.25-1.74,0.71c-0.46,0.46-0.71,1.1-0.7,1.75
		c0.01,0.65,0.3,1.28,0.77,1.72L58.39,33.32z"/>
	<path d="M90.29,58.11c-0.45-0.41-1.03-0.63-1.63-0.63c-0.22,0-0.44,0.03-0.65,0.09c-0.8,0.23-1.44,0.87-1.66,1.68
		c-0.22,0.8,0,1.68,0.57,2.29l6.49,6.49c0.43,0.42,0.99,0.67,1.6,0.69c0.62,0,1.22-0.25,1.67-0.71c0.45-0.45,0.71-1.07,0.71-1.7
		c0-0.64-0.25-1.25-0.7-1.7L90.29,58.11z"/>
	<path d="M76.06,27.47c0.46-0.45,0.71-1.06,0.71-1.7v-9.1c0-0.86-0.46-1.66-1.2-2.09c-0.37-0.21-0.79-0.32-1.2-0.32
		s-0.83,0.11-1.2,0.32c-0.74,0.43-1.2,1.23-1.2,2.09v9.1c0,0.64,0.25,1.25,0.71,1.7C73.57,28.38,75.16,28.38,76.06,27.47z"/>
	<path d="M74.36,63.23c-0.64,0-1.24,0.26-1.7,0.71c-0.46,0.46-0.71,1.06-0.71,1.7v9.09c0,0.86,0.46,1.66,1.2,2.09
		c0.74,0.43,1.67,0.43,2.41,0s1.2-1.23,1.2-2.09v-9.1c0-0.64-0.26-1.26-0.71-1.7C75.61,63.48,75.01,63.23,74.36,63.23z"/>
	<path d="M59.51,76.38L59.51,76.38c-0.62-0.15-1.28-0.05-1.82,0.28c-0.54,0.33-0.94,0.87-1.09,1.48c-0.44,1.77-1.48,3.36-2.92,4.48
		c-1.43,1.11-3.21,1.73-5.03,1.73c-0.01,0-0.02,0-0.02,0H17.66c-2.45,0.13-4.92-0.79-6.73-2.51c-1.81-1.72-2.85-4.14-2.85-6.64
		c0-2.5,1.04-4.92,2.85-6.64c1.81-1.72,4.29-2.64,6.78-2.51c0.25-0.02,0.61-0.02,0.97,0c0.69,0.1,1.31-0.07,1.82-0.46
		c0.51-0.39,0.84-0.94,0.93-1.57c0.54-3.28,2.67-6.02,5.7-7.34c3.03-1.32,6.48-1.02,9.24,0.8c0.54,0.37,1.2,0.52,1.84,0.4
		c0.64-0.12,1.2-0.47,1.57-1.01c0.36-0.53,0.51-1.19,0.39-1.82c-0.12-0.64-0.47-1.2-1.01-1.57c-2.41-1.63-5.23-2.49-8.15-2.49
		c-0.07,0-0.13,0-0.2,0c-2.99,0.04-5.85,0.97-8.28,2.71c-2.43,1.73-4.25,4.14-5.26,6.95l-0.19,0.54l-0.57,0.02
		c-3.73,0.15-7.17,1.74-9.7,4.48C4.28,68.44,2.96,72,3.12,75.72c0.15,3.73,1.74,7.17,4.48,9.7c2.74,2.53,6.29,3.84,10.03,3.69h31.01
		c0.02,0,0.04,0,0.06,0c2.88,0,5.71-0.98,7.98-2.75c2.28-1.79,3.92-4.32,4.6-7.14c0.14-0.61,0.04-1.24-0.29-1.78
		C60.65,76.91,60.13,76.53,59.51,76.38z"/>
</g>
</svg>
