<?xml version="1.0" encoding="utf-8"?>
<!-- Generator: Adobe Illustrator 27.9.0, SVG Export Plug-In . SVG Version: 6.00 Build 0)  -->
<svg version="1.1" id="Layer_1" xmlns="http://www.w3.org/2000/svg" xmlns:xlink="http://www.w3.org/1999/xlink" x="0px" y="0px"
	 viewBox="0 0 110 110" style="enable-background:new 0 0 110 110;" xml:space="preserve">
<g>
	<path d="M82.7,47.59c0,1.5-1.22,2.72-2.73,2.72c-1.5,0-2.73-1.22-2.73-2.72c0-1.5,1.22-2.73,2.73-2.73
		C81.48,44.86,82.7,46.08,82.7,47.59"/>
	<path d="M66.01,47.59c0,1.5-1.22,2.72-2.72,2.72c-1.5,0-2.73-1.22-2.73-2.72c0-1.5,1.22-2.73,2.73-2.73
		C64.79,44.86,66.01,46.08,66.01,47.59"/>
	<path d="M49.32,47.59c0,1.5-1.22,2.72-2.73,2.72c-1.5,0-2.73-1.22-2.73-2.72c0-1.5,1.22-2.73,2.73-2.73
		C48.1,44.86,49.32,46.08,49.32,47.59"/>
	<path d="M30.82,47.59c0,1.57-1.27,2.84-2.84,2.84c-1.57,0-2.84-1.27-2.84-2.84c0-1.57,1.27-2.84,2.84-2.84
		C29.54,44.75,30.82,46.02,30.82,47.59"/>
	<path d="M38.42,19.43c0,2.16,0.91,4.09,2.5,5.45c0.34,0.34,0.68,0.45,1.14,0.45s0.91-0.23,1.25-0.57c0.68-0.68,0.57-1.82-0.11-2.38
		c-0.91-0.79-1.36-1.82-1.36-3.07c0-1.14,0.45-2.27,1.25-3.07c1.59-1.59,2.38-3.63,2.27-5.9c-0.11-2.27-1.14-4.2-2.95-5.56
		c-0.79-0.57-1.82-0.45-2.38,0.34c-0.57,0.79-0.45,1.82,0.34,2.38c0.91,0.79,1.59,1.93,1.59,3.07c0.11,1.25-0.34,2.38-1.25,3.29
		C39.22,15.23,38.42,17.27,38.42,19.43L38.42,19.43z"/>
	<path d="M50.69,19.31c0,2.16,0.91,4.09,2.5,5.45c0.34,0.34,0.68,0.45,1.14,0.45s0.91-0.23,1.25-0.57c0.68-0.68,0.57-1.82-0.11-2.38
		c-0.91-0.79-1.36-1.82-1.36-3.07c0-1.14,0.45-2.27,1.25-3.07c1.59-1.59,2.38-3.63,2.27-5.9c-0.11-2.16-1.14-4.2-2.95-5.56
		c-0.79-0.57-1.82-0.45-2.38,0.34c-0.57,0.79-0.45,1.82,0.34,2.38c0.91,0.79,1.59,1.93,1.59,3.07c0.11,1.25-0.34,2.38-1.25,3.29
		C51.48,15.23,50.57,17.27,50.69,19.31L50.69,19.31z"/>
	<path d="M62.83,19.31c0,2.16,0.91,4.09,2.5,5.45c0.34,0.34,0.68,0.45,1.14,0.45s0.91-0.23,1.25-0.57c0.68-0.68,0.57-1.82-0.11-2.38
		c-0.91-0.79-1.36-1.82-1.36-3.07c0-1.14,0.45-2.27,1.25-3.07c1.59-1.59,2.38-3.63,2.27-5.9c-0.11-2.27-1.14-4.2-2.95-5.56
		c-0.79-0.57-1.82-0.45-2.38,0.34c-0.57,0.79-0.45,1.82,0.34,2.38c0.91,0.79,1.59,1.93,1.59,3.07c0.11,1.25-0.34,2.38-1.25,3.29
		C63.63,15.23,62.83,17.27,62.83,19.31L62.83,19.31z"/>
	<path d="M9.24,32.49v66.19c0,0.91,0.79,1.7,1.7,1.7s1.7-0.79,1.7-1.7v-3.41h84.7v3.41c0,0.91,0.79,1.7,1.7,1.7
		c0.91,0,1.7-0.79,1.7-1.7l0-43.49V32.49H9.24z M12.65,35.89h84.7v19.42c0,2.16-1.82,3.97-3.97,3.97l-76.75,0
		c-2.16,0-3.97-1.82-3.97-3.97L12.65,35.89z M12.65,91.75V61.44c1.14,0.68,2.5,1.14,3.97,1.14h76.75c1.48,0,2.84-0.45,3.97-1.14
		v30.32H12.65z"/>
</g>
</svg>
