<?xml version="1.0" encoding="utf-8"?>
<!-- Generator: Adobe Illustrator 27.9.0, SVG Export Plug-In . SVG Version: 6.00 Build 0)  -->
<svg version="1.1" id="Layer_1" xmlns="http://www.w3.org/2000/svg" xmlns:xlink="http://www.w3.org/1999/xlink" x="0px" y="0px"
	 viewBox="0 0 110 110" style="enable-background:new 0 0 110 110;" xml:space="preserve">
<g>
	<path d="M54.49,4.11c-8.4,0-16.45,3.28-22.4,9.13c-5.94,5.85-9.29,13.8-9.29,22.1s3.35,16.25,9.29,22.1
		c2.36,2.42,5.06,4.27,7.99,5.72v3.09c0,4.67,3.58,8.43,8.38,10.15v20.08c0,3.28,2.73,5.96,6.03,5.96c3.3,0,6.03-2.69,6.03-5.96
		V76.39c4.79-1.61,8.38-5.48,8.38-10.15v-3.09c2.92-1.34,5.62-3.38,7.99-5.72c5.94-5.85,9.29-13.8,9.29-22.1s-3.35-16.25-9.29-22.1
		C70.94,7.39,62.89,4.11,54.49,4.11L54.49,4.11z M54.49,7.49c7.51,0,14.71,2.95,20.02,8.16c5.31,5.24,8.28,12.3,8.28,19.68
		s-2.97,14.47-8.28,19.68c-2.23,2.15-4.82,4-7.62,5.34v0c-0.27,0.03-0.53,0.12-0.75,0.27c-3.63,1.61-7.6,2.42-11.66,2.42
		c-4.05,0-8.01-0.81-11.63-2.42c-0.23-0.15-0.5-0.24-0.78-0.27c-2.79-1.34-5.36-3.14-7.6-5.34c-5.31-5.21-8.28-12.3-8.28-19.68
		s2.97-14.45,8.28-19.68C39.77,10.45,46.97,7.49,54.49,7.49L54.49,7.49z M75.59,39.85c-1.02,0-1.88,0.81-1.88,1.88
		c0,1.07,0.86,1.88,1.88,1.88c1.02,0,1.88-0.81,1.88-1.88C77.47,40.66,76.61,39.85,75.59,39.85z M68.13,40.66
		c-1.02,0-1.88,0.81-1.88,1.88c0,1.07,0.86,1.88,1.88,1.88c1.02,0,1.88-0.81,1.88-1.88C70.01,41.46,69.15,40.66,68.13,40.66z
		 M60.79,47.21c-1.02,0-1.88,0.81-1.88,1.88c0,1.07,0.86,1.88,1.88,1.88c1.02,0,1.88-0.81,1.88-1.88
		C62.67,48.01,61.81,47.21,60.79,47.21z M69.75,49.09c-1.02,0-1.88,0.81-1.88,1.88c0,1.07,0.86,1.88,1.88,1.88
		c1.02,0,1.88-0.81,1.88-1.88C71.63,49.89,70.77,49.09,69.75,49.09z M61.06,55.24c-1.02,0-1.88,0.81-1.88,1.88s0.86,1.88,1.88,1.88
		c1.02,0,1.88-0.81,1.88-1.88C62.94,56.04,62.08,55.24,61.06,55.24z M43.47,64.63c3.49,1.34,7.22,1.88,11.02,1.88
		c3.8,0,7.53-0.54,11.02-1.88v1.61c0,3.17-2.76,6.1-7.13,7.28c-0.36,0.09-0.67,0.3-0.9,0.59c-0.23,0.29-0.35,0.65-0.36,1.02v21.32
		c0,1.34-1.13,2.69-2.63,2.69c-1.5,0-2.63-1.07-2.63-2.69V75.13h0c-0.01-0.37-0.13-0.73-0.36-1.02c-0.23-0.29-0.54-0.5-0.9-0.59
		c-4.36-1.07-7.13-4.11-7.13-7.28L43.47,64.63z"/>
</g>
</svg>
